<svg width="87" height="87" viewBox="0 0 87 87" fill="none" xmlns="http://www.w3.org/2000/svg"><path d="M17.232 0H51.696V8.616H17.232V0ZM8.616 17.232V8.616H17.232V17.232H8.616ZM8.616 51.696H0V17.232H8.616V51.696ZM17.232 60.312H8.616V51.696H17.232V60.312ZM51.696 60.312V68.928H17.232V60.312H51.696ZM60.312 51.696H51.696V60.312H60.312V68.928H68.928V77.544H77.544V86.16H86.16V77.544H77.544V68.928H68.928V60.312H60.312V51.696ZM60.312 17.232H68.928V51.696H60.312V17.232ZM60.312 17.232V8.616H51.696V17.232H60.312Z" fill="currentColor"/></svg>