<svg width="1073" height="110" viewBox="0 0 1073 110" fill="none" xmlns="http://www.w3.org/2000/svg">
<path d="M44.625 44.375V22.5H0.875V0.625H66.5V44.375H44.625ZM22.75 66.25V44.375H44.625V66.25H22.75ZM0.875 110V66.25H22.75V88.125H66.5V110H0.875ZM110.25 110V0.625H132.125V110H110.25ZM175.875 110V0.625H241.5V22.5H263.375V44.375H241.5V66.25H197.75V110H175.875ZM197.75 44.375H240.625V22.5H197.75V44.375ZM307.125 110V0.625H372.75V22.5H394.625V44.375H372.75V66.25H329V110H307.125ZM329 44.375H371.875V22.5H329V44.375ZM460.25 110V88.125H438.375V0.625H460.25V88.125H482.125V110H460.25ZM525.875 88.125V0.625H547.75V88.125H525.875ZM504 110V88.125H482.125V22.5H504V88.125H525.875V110H504Z" fill="url(#paint0_linear_74_2)"/>
<path d="M591.5 110V88.125H613.375V110H591.5ZM657.125 110V0.625H679V88.125H722.75V110H657.125ZM766.5 110V0.625H788.375V110H766.5ZM832.125 110V0.625H854V22.5H875.875V44.375H897.75V66.25H919.625V0.625H941.5V110H919.625V88.125H897.75V66.25H875.875V44.375H854V110H832.125ZM985.25 110V0.625H1007.12V44.375H1029V66.25H1050.88V88.125H1072.75V110H1050.88V88.125H1029V66.25H1007.12V110H985.25ZM1050.88 22.5V0.625H1072.75V22.5H1050.88ZM1029 44.375V22.5H1050.88V44.375H1029Z" fill="white"/>
<defs>
<linearGradient id="paint0_linear_74_2" x1="1095" y1="42" x2="-21" y2="42.0001" gradientUnits="userSpaceOnUse">
<stop stop-color="#E0B0FF"/>
<stop offset="0.125" stop-color="#83C7FF"/>
<stop offset="0.25" stop-color="#EFFFD2"/>
<stop offset="0.375" stop-color="#A9FFFB"/>
<stop offset="0.5" stop-color="#FFF9DC"/>
<stop offset="0.625" stop-color="#C7CEFF"/>
<stop offset="0.75" stop-color="#FFE6E1"/>
<stop offset="0.875" stop-color="#E3BBFF"/>
<stop offset="1" stop-color="#E0B0FF"/>
</linearGradient>
</defs>
</svg>
