<svg width="920" height="110" viewBox="0 0 920 110" fill="none" xmlns="http://www.w3.org/2000/svg">
<path opacity="0.5" d="M44.625 44.375H41.625V47.375H44.625V44.375ZM44.625 22.5H47.625V19.5H44.625V22.5ZM0.875 22.5H-2.125V25.5H0.875V22.5ZM0.875 0.625V-2.375H-2.125V0.625H0.875ZM66.5 0.625H69.5V-2.375H66.5V0.625ZM66.5 44.375V47.375H69.5V44.375H66.5ZM22.75 66.25H19.75V69.25H22.75V66.25ZM22.75 44.375V41.375H19.75V44.375H22.75ZM44.625 44.375H47.625V41.375H44.625V44.375ZM44.625 66.25V69.25H47.625V66.25H44.625ZM0.875 110H-2.125V113H0.875V110ZM0.875 66.25V63.25H-2.125V66.25H0.875ZM22.75 66.25H25.75V63.25H22.75V66.25ZM22.75 88.125H19.75V91.125H22.75V88.125ZM66.5 88.125H69.5V85.125H66.5V88.125ZM66.5 110V113H69.5V110H66.5ZM47.625 44.375V22.5H41.625V44.375H47.625ZM44.625 19.5H0.875V25.5H44.625V19.5ZM3.875 22.5V0.625H-2.125V22.5H3.875ZM0.875 3.625H66.5V-2.375H0.875V3.625ZM63.5 0.625V44.375H69.5V0.625H63.5ZM66.5 41.375H44.625V47.375H66.5V41.375ZM25.75 66.25V44.375H19.75V66.25H25.75ZM22.75 47.375H44.625V41.375H22.75V47.375ZM41.625 44.375V66.25H47.625V44.375H41.625ZM44.625 63.25H22.75V69.25H44.625V63.25ZM3.875 110V66.25H-2.125V110H3.875ZM0.875 69.25H22.75V63.25H0.875V69.25ZM19.75 66.25V88.125H25.75V66.25H19.75ZM22.75 91.125H66.5V85.125H22.75V91.125ZM63.5 88.125V110H69.5V88.125H63.5ZM66.5 107H0.875V113H66.5V107ZM132.125 110H129.125V113H132.125V110ZM132.125 88.125H135.125V85.125H132.125V88.125ZM110.25 88.125H107.25V91.125H110.25V88.125ZM110.25 0.625V-2.375H107.25V0.625H110.25ZM132.125 0.625H135.125V-2.375H132.125V0.625ZM132.125 88.125H129.125V91.125H132.125V88.125ZM154 88.125H157V85.125H154V88.125ZM154 110V113H157V110H154ZM197.75 88.125H194.75V91.125H197.75V88.125ZM197.75 0.625V-2.375H194.75V0.625H197.75ZM219.625 0.625H222.625V-2.375H219.625V0.625ZM219.625 88.125V91.125H222.625V88.125H219.625ZM175.875 110H172.875V113H175.875V110ZM175.875 88.125H178.875V85.125H175.875V88.125ZM154 88.125H151V91.125H154V88.125ZM154 22.5V19.5H151V22.5H154ZM175.875 22.5H178.875V19.5H175.875V22.5ZM175.875 88.125H172.875V91.125H175.875V88.125ZM197.75 88.125H200.75V85.125H197.75V88.125ZM197.75 110V113H200.75V110H197.75ZM135.125 110V88.125H129.125V110H135.125ZM132.125 85.125H110.25V91.125H132.125V85.125ZM113.25 88.125V0.625H107.25V88.125H113.25ZM110.25 3.625H132.125V-2.375H110.25V3.625ZM129.125 0.625V88.125H135.125V0.625H129.125ZM132.125 91.125H154V85.125H132.125V91.125ZM151 88.125V110H157V88.125H151ZM154 107H132.125V113H154V107ZM200.75 88.125V0.625H194.75V88.125H200.75ZM197.75 3.625H219.625V-2.375H197.75V3.625ZM216.625 0.625V88.125H222.625V0.625H216.625ZM219.625 85.125H197.75V91.125H219.625V85.125ZM178.875 110V88.125H172.875V110H178.875ZM175.875 85.125H154V91.125H175.875V85.125ZM157 88.125V22.5H151V88.125H157ZM154 25.5H175.875V19.5H154V25.5ZM172.875 22.5V88.125H178.875V22.5H172.875ZM175.875 91.125H197.75V85.125H175.875V91.125ZM194.75 88.125V110H200.75V88.125H194.75ZM197.75 107H175.875V113H197.75V107ZM263.375 110H260.375V113H263.375V110ZM263.375 88.125V85.125H260.375V88.125H263.375ZM285.25 88.125H288.25V85.125H285.25V88.125ZM285.25 110V113H288.25V110H285.25ZM266.375 110V88.125H260.375V110H266.375ZM263.375 91.125H285.25V85.125H263.375V91.125ZM282.25 88.125V110H288.25V88.125H282.25ZM285.25 107H263.375V113H285.25V107ZM350.875 22.5H347.875V25.5H350.875V22.5ZM350.875 0.625V-2.375H347.875V0.625H350.875ZM416.5 0.625H419.5V-2.375H416.5V0.625ZM416.5 22.5V25.5H419.5V22.5H416.5ZM394.625 88.125H391.625V91.125H394.625V88.125ZM394.625 66.25H397.625V63.25H394.625V66.25ZM350.875 66.25H347.875V69.25H350.875V66.25ZM350.875 44.375H353.875V41.375H350.875V44.375ZM329 44.375H326V47.375H329V44.375ZM329 22.5V19.5H326V22.5H329ZM350.875 22.5H353.875V19.5H350.875V22.5ZM350.875 44.375H347.875V47.375H350.875V44.375ZM394.625 44.375H397.625V41.375H394.625V44.375ZM394.625 66.25H391.625V69.25H394.625V66.25ZM416.5 66.25H419.5V63.25H416.5V66.25ZM416.5 88.125V91.125H419.5V88.125H416.5ZM329 110H326V113H329V110ZM329 88.125V85.125H326V88.125H329ZM394.625 88.125H397.625V85.125H394.625V88.125ZM394.625 110V113H397.625V110H394.625ZM353.875 22.5V0.625H347.875V22.5H353.875ZM350.875 3.625H416.5V-2.375H350.875V3.625ZM413.5 0.625V22.5H419.5V0.625H413.5ZM416.5 19.5H350.875V25.5H416.5V19.5ZM397.625 88.125V66.25H391.625V88.125H397.625ZM394.625 63.25H350.875V69.25H394.625V63.25ZM353.875 66.25V44.375H347.875V66.25H353.875ZM350.875 41.375H329V47.375H350.875V41.375ZM332 44.375V22.5H326V44.375H332ZM329 25.5H350.875V19.5H329V25.5ZM347.875 22.5V44.375H353.875V22.5H347.875ZM350.875 47.375H394.625V41.375H350.875V47.375ZM391.625 44.375V66.25H397.625V44.375H391.625ZM394.625 69.25H416.5V63.25H394.625V69.25ZM413.5 66.25V88.125H419.5V66.25H413.5ZM416.5 85.125H394.625V91.125H416.5V85.125ZM332 110V88.125H326V110H332ZM329 91.125H394.625V85.125H329V91.125ZM391.625 88.125V110H397.625V88.125H391.625ZM394.625 107H329V113H394.625V107ZM460.25 110H457.25V113H460.25V110ZM460.25 0.625V-2.375H457.25V0.625H460.25ZM525.875 0.625H528.875V-2.375H525.875V0.625ZM525.875 22.5H522.875V25.5H525.875V22.5ZM547.75 22.5H550.75V19.5H547.75V22.5ZM547.75 44.375V47.375H550.75V44.375H547.75ZM525.875 44.375V41.375H522.875V44.375H525.875ZM525.875 66.25V69.25H528.875V66.25H525.875ZM482.125 66.25V63.25H479.125V66.25H482.125ZM482.125 110V113H485.125V110H482.125ZM482.125 44.375H479.125V47.375H482.125V44.375ZM525 44.375V47.375H528V44.375H525ZM525 22.5H528V19.5H525V22.5ZM482.125 22.5V19.5H479.125V22.5H482.125ZM463.25 110V0.625H457.25V110H463.25ZM460.25 3.625H525.875V-2.375H460.25V3.625ZM522.875 0.625V22.5H528.875V0.625H522.875ZM525.875 25.5H547.75V19.5H525.875V25.5ZM544.75 22.5V44.375H550.75V22.5H544.75ZM547.75 41.375H525.875V47.375H547.75V41.375ZM522.875 44.375V66.25H528.875V44.375H522.875ZM525.875 63.25H482.125V69.25H525.875V63.25ZM479.125 66.25V110H485.125V66.25H479.125ZM482.125 107H460.25V113H482.125V107ZM482.125 47.375H525V41.375H482.125V47.375ZM528 44.375V22.5H522V44.375H528ZM525 19.5H482.125V25.5H525V19.5ZM479.125 22.5V44.375H485.125V22.5H479.125ZM591.5 110H588.5V113H591.5V110ZM591.5 22.5V19.5H588.5V22.5H591.5ZM613.375 22.5V25.5H616.375V22.5H613.375ZM613.375 0.625V-2.375H610.375V0.625H613.375ZM657.125 0.625H660.125V-2.375H657.125V0.625ZM657.125 22.5H654.125V25.5H657.125V22.5ZM679 22.5H682V19.5H679V22.5ZM679 110V113H682V110H679ZM657.125 110H654.125V113H657.125V110ZM657.125 66.25H660.125V63.25H657.125V66.25ZM613.375 66.25V63.25H610.375V66.25H613.375ZM613.375 110V113H616.375V110H613.375ZM613.375 44.375H610.375V47.375H613.375V44.375ZM657.125 44.375V47.375H660.125V44.375H657.125ZM657.125 23.375H660.125V20.375H657.125V23.375ZM613.375 23.375V20.375H610.375V23.375H613.375ZM594.5 110V22.5H588.5V110H594.5ZM591.5 25.5H613.375V19.5H591.5V25.5ZM616.375 22.5V0.625H610.375V22.5H616.375ZM613.375 3.625H657.125V-2.375H613.375V3.625ZM654.125 0.625V22.5H660.125V0.625H654.125ZM657.125 25.5H679V19.5H657.125V25.5ZM676 22.5V110H682V22.5H676ZM679 107H657.125V113H679V107ZM660.125 110V66.25H654.125V110H660.125ZM657.125 63.25H613.375V69.25H657.125V63.25ZM610.375 66.25V110H616.375V66.25H610.375ZM613.375 107H591.5V113H613.375V107ZM613.375 47.375H657.125V41.375H613.375V47.375ZM660.125 44.375V23.375H654.125V44.375H660.125ZM657.125 20.375H613.375V26.375H657.125V20.375ZM610.375 23.375V44.375H616.375V23.375H610.375ZM788.375 44.375H785.375V47.375H788.375V44.375ZM788.375 22.5H791.375V19.5H788.375V22.5ZM744.625 22.5H741.625V25.5H744.625V22.5ZM744.625 0.625V-2.375H741.625V0.625H744.625ZM788.375 0.625H791.375V-2.375H788.375V0.625ZM788.375 22.5H785.375V25.5H788.375V22.5ZM810.25 22.5H813.25V19.5H810.25V22.5ZM810.25 44.375V47.375H813.25V44.375H810.25ZM744.625 110H741.625V113H744.625V110ZM744.625 88.125H747.625V85.125H744.625V88.125ZM722.75 88.125H719.75V91.125H722.75V88.125ZM722.75 22.5V19.5H719.75V22.5H722.75ZM744.625 22.5H747.625V19.5H744.625V22.5ZM744.625 88.125H741.625V91.125H744.625V88.125ZM788.375 88.125H791.375V85.125H788.375V88.125ZM788.375 110V113H791.375V110H788.375ZM788.375 88.125H785.375V91.125H788.375V88.125ZM788.375 66.25V63.25H785.375V66.25H788.375ZM810.25 66.25H813.25V63.25H810.25V66.25ZM810.25 88.125V91.125H813.25V88.125H810.25ZM791.375 44.375V22.5H785.375V44.375H791.375ZM788.375 19.5H744.625V25.5H788.375V19.5ZM747.625 22.5V0.625H741.625V22.5H747.625ZM744.625 3.625H788.375V-2.375H744.625V3.625ZM785.375 0.625V22.5H791.375V0.625H785.375ZM788.375 25.5H810.25V19.5H788.375V25.5ZM807.25 22.5V44.375H813.25V22.5H807.25ZM810.25 41.375H788.375V47.375H810.25V41.375ZM747.625 110V88.125H741.625V110H747.625ZM744.625 85.125H722.75V91.125H744.625V85.125ZM725.75 88.125V22.5H719.75V88.125H725.75ZM722.75 25.5H744.625V19.5H722.75V25.5ZM741.625 22.5V88.125H747.625V22.5H741.625ZM744.625 91.125H788.375V85.125H744.625V91.125ZM785.375 88.125V110H791.375V88.125H785.375ZM788.375 107H744.625V113H788.375V107ZM791.375 88.125V66.25H785.375V88.125H791.375ZM788.375 69.25H810.25V63.25H788.375V69.25ZM807.25 66.25V88.125H813.25V66.25H807.25ZM810.25 85.125H788.375V91.125H810.25V85.125ZM854 110H851V113H854V110ZM854 0.625V-2.375H851V0.625H854ZM919.625 0.625H922.625V-2.375H919.625V0.625ZM919.625 22.5V25.5H922.625V22.5H919.625ZM875.875 22.5V19.5H872.875V22.5H875.875ZM875.875 44.375H872.875V47.375H875.875V44.375ZM919.625 44.375H922.625V41.375H919.625V44.375ZM919.625 66.25V69.25H922.625V66.25H919.625ZM875.875 66.25V63.25H872.875V66.25H875.875ZM875.875 88.125H872.875V91.125H875.875V88.125ZM919.625 88.125H922.625V85.125H919.625V88.125ZM919.625 110V113H922.625V110H919.625ZM857 110V0.625H851V110H857ZM854 3.625H919.625V-2.375H854V3.625ZM916.625 0.625V22.5H922.625V0.625H916.625ZM919.625 19.5H875.875V25.5H919.625V19.5ZM872.875 22.5V44.375H878.875V22.5H872.875ZM875.875 47.375H919.625V41.375H875.875V47.375ZM916.625 44.375V66.25H922.625V44.375H916.625ZM919.625 63.25H875.875V69.25H919.625V63.25ZM872.875 66.25V88.125H878.875V66.25H872.875ZM875.875 91.125H919.625V85.125H875.875V91.125ZM916.625 88.125V110H922.625V88.125H916.625ZM919.625 107H854V113H919.625V107Z" fill="white"/>
</svg>
