<svg width="854" height="110" viewBox="0 0 854 110" fill="none" xmlns="http://www.w3.org/2000/svg">
<path d="M22.75 110V88.125H0.875V0.625H22.75V88.125H44.625V110H22.75ZM88.375 88.125V0.625H110.25V88.125H88.375ZM66.5 110V88.125H44.625V22.5H66.5V88.125H88.375V110H66.5ZM154 110V0.625H219.625V22.5H175.875V44.375H219.625V66.25H175.875V88.125H219.625V110H154ZM263.375 110V0.625H285.25V88.125H329V110H263.375ZM438.375 44.375V22.5H394.625V0.625H438.375V22.5H460.25V44.375H438.375ZM394.625 110V88.125H372.75V22.5H394.625V88.125H438.375V110H394.625ZM438.375 88.125V66.25H460.25V88.125H438.375ZM525.875 110V88.125H504V22.5H525.875V0.625H569.625V22.5H591.5V88.125H569.625V110H525.875ZM525.875 87.25H569.625V23.375H525.875V87.25ZM635.25 110V0.625H657.125V22.5H679V44.375H700.875V66.25H679V44.375H657.125V110H635.25ZM722.75 110V44.375H700.875V22.5H722.75V0.625H744.625V110H722.75ZM788.375 110V0.625H854V22.5H810.25V44.375H854V66.25H810.25V88.125H854V110H788.375Z" fill="white"/>
</svg>
