<svg width="46" height="46" viewBox="0 0 46 46" fill="none" xmlns="http://www.w3.org/2000/svg"><path d="M3.14819 0.359375L6.76171 40.9267L22.976 45.4476L39.2355 40.9102L42.8519 0.359375H3.14819ZM35.345 9.65353L34.1421 23.1678L34.1457 23.2408L34.1407 23.4086V23.4072L33.2861 32.8566L33.1919 33.6961L23.0001 36.515L22.9922 36.5222L12.8179 33.6875L12.129 25.875H17.1182L17.4722 29.8475L23.0015 31.3461L23.0001 31.349V31.3483L28.5499 29.8285L29.1364 23.3594H17.5347L17.4351 22.2658L17.2084 19.7038L17.0894 18.3281H29.5773L30.0316 13.2969H11.0113L10.9118 12.204L10.6854 9.64131L10.5661 8.26562H35.4639L35.345 9.65353Z" fill="currentColor"/></svg>