<svg width="127" height="22" viewBox="0 0 127 22" fill="none" xmlns="http://www.w3.org/2000/svg"><path d="M0 0.332336V18.4233L3.028 18.4163C5.676 18.4083 6.098 18.4053 6.379 18.3753C7.317 18.2783 7.965 18.1503 8.703 17.9193C9.59296 17.6457 10.4275 17.2167 11.168 16.6523C11.5483 16.3459 11.9026 16.0084 12.227 15.6433C13 14.7133 13.512 13.6853 13.848 12.3893C14.34 10.5023 14.328 8.00633 13.828 6.13433C12.961 2.91033 10.602 0.952336 6.985 0.451336C6.176 0.343336 6.266 0.346335 3.02 0.335335L0 0.332336ZM3.348 2.92533H4.215C5.364 2.92533 5.845 2.95834 6.465 3.07534C8.661 3.49334 10.028 4.82334 10.543 7.03534C10.813 8.18534 10.852 9.82234 10.637 11.0813C10.485 11.9973 10.192 12.8223 9.793 13.4653C9.50243 13.9137 9.14573 14.3156 8.735 14.6573C7.93 15.2853 6.907 15.6583 5.641 15.7773C5.446 15.7973 4.969 15.8153 4.341 15.8233L3.348 15.8333V2.92533ZM17.953 9.37434V0.332336H21.301V18.4193H17.953V9.37434ZM30.903 18.7373C28.9069 18.6225 26.9911 17.9119 25.403 16.6973C25.083 16.4503 24.719 16.1293 24.719 16.0923C24.719 16.0803 25.149 15.5843 25.672 14.9893L26.622 13.9133L26.703 13.9773C27.075 14.2803 27.173 14.3583 27.317 14.4673C28.328 15.1993 29.465 15.6843 30.621 15.8793C31.004 15.9423 31.754 15.9693 32.161 15.9273C33.028 15.8453 33.715 15.5843 34.172 15.1693C34.383 14.9753 34.504 14.8213 34.622 14.5823C34.985 13.8543 34.895 12.9493 34.407 12.3673C34.067 11.9633 33.469 11.6123 32.356 11.1603C31.1307 10.6573 29.9107 10.1416 28.696 9.61333C26.914 8.74633 25.895 7.53233 25.598 5.92533C25.5394 5.48452 25.526 5.03888 25.558 4.59534C25.711 3.15334 26.563 1.87133 27.907 1.03833C28.777 0.500334 29.747 0.175337 30.922 0.0403367C31.5302 -0.0114225 32.1416 -0.012762 32.75 0.036335C34.293 0.223335 35.696 0.761336 36.887 1.63234C37.274 1.92034 37.668 2.26033 37.653 2.30133C37.649 2.31133 37.263 2.77133 36.793 3.32833L35.942 4.33734L35.868 4.27734C35.7544 4.18817 35.6383 4.10214 35.52 4.01934C34.602 3.35134 33.68 2.97334 32.606 2.83134C32.239 2.78334 31.476 2.78334 31.149 2.83134C30.407 2.94034 29.875 3.16734 29.485 3.54134C29.3091 3.70287 29.1678 3.89848 29.0699 4.11628C28.9719 4.33409 28.9192 4.56954 28.915 4.80833C28.887 5.33533 29.047 5.77233 29.415 6.14933C29.785 6.53433 30.355 6.84834 31.481 7.29234C32.149 7.55834 34.332 8.44034 34.629 8.56734C35.606 8.98134 36.305 9.41934 36.887 9.98334C37.797 10.8653 38.235 11.9483 38.235 13.3343C38.239 14.2243 38.075 14.9073 37.68 15.6513C37.4186 16.1496 37.0708 16.5975 36.653 16.9743C35.583 17.9743 34.106 18.5693 32.313 18.7183C31.8437 18.751 31.373 18.7566 30.903 18.7373ZM48.618 18.7373C46.524 18.6213 44.664 17.8473 43.274 16.5143C42.067 15.3563 41.239 13.7903 40.856 11.9483C40.5721 10.5128 40.5339 9.0396 40.743 7.59134C41.016 5.76434 41.731 4.12434 42.805 2.86534C43.039 2.58834 43.547 2.09533 43.828 1.86333C44.965 0.937335 46.34 0.335336 47.86 0.103336C48.395 0.0213364 48.649 0.00333409 49.27 0.00333409C49.871 0.00333409 50.067 0.0183342 50.528 0.0933342C51.993 0.335334 53.442 1.07934 54.536 2.14334L54.68 2.28234L54.618 2.35334C54.586 2.39034 54.172 2.83934 53.7 3.34734L52.84 4.27734L52.63 4.09434C51.778 3.36234 50.98 2.97734 50.012 2.83134C49.58 2.7866 49.1447 2.78291 48.712 2.82034C47.629 2.96234 46.739 3.37334 45.985 4.07534C44.637 5.33134 43.95 7.37134 44.055 9.80334C44.11 11.1113 44.348 12.1803 44.785 13.1033C45.411 14.4183 46.395 15.3153 47.653 15.7183C48.164 15.8823 48.621 15.9463 49.235 15.9463C50.188 15.9463 50.969 15.7563 51.743 15.3293C52.2232 15.0481 52.6654 14.7067 53.059 14.3133C53.105 14.261 53.1574 14.2146 53.215 14.1753C53.8348 14.8194 54.4455 15.4721 55.047 16.1333C55.047 16.1733 54.18 16.9773 53.927 17.1723C52.407 18.3303 50.654 18.8493 48.618 18.7373ZM64.536 0.00333409C63.809 0.00333409 63.547 0.0213358 62.969 0.111336C59.059 0.739336 56.551 3.75133 56.211 8.23833C56.153 9.01133 56.164 9.91534 56.243 10.7003C56.438 12.6323 57.071 14.3773 58.063 15.6963C59.246 17.2763 60.957 18.2963 62.977 18.6293C63.277 18.6773 63.817 18.7373 64.087 18.7453C67.145 18.8603 69.649 17.6463 71.215 15.2853C71.442 14.9453 71.817 14.2273 71.981 13.8353C72.547 12.4373 72.801 11.0553 72.801 9.31834C72.805 8.41034 72.762 7.85333 72.637 7.11333C71.989 3.26133 69.61 0.713337 66.106 0.123337C65.528 0.0253368 65.246 0.00333409 64.536 0.00333409ZM64.504 2.78633C64.563 2.78633 64.621 2.79034 64.68 2.79034C65.703 2.83134 66.578 3.15633 67.328 3.77333C67.598 3.99733 67.75 4.15334 67.981 4.44934C68.836 5.53334 69.286 6.95933 69.368 8.82133C69.461 11.0143 68.953 12.9713 67.961 14.2533C67.254 15.1653 66.368 15.6993 65.243 15.8973C65.02 15.9393 64.183 15.9533 63.953 15.9273C62.399 15.7263 61.219 14.8473 60.45 13.3233C59.942 12.3223 59.68 11.1933 59.621 9.76633C59.496 6.85633 60.407 4.53134 62.086 3.46634C62.8101 3.01244 63.6495 2.77639 64.504 2.78633ZM76.536 0.332336V18.4193H79.883V11.3393L81.309 11.3463L82.739 11.3503L84.766 14.8853L86.789 18.4193H88.669C90.449 18.4193 90.543 18.4193 90.524 18.3863C90.512 18.3673 89.504 16.6673 88.278 14.6123C87.535 13.3676 86.7953 12.121 86.059 10.8723C86.1409 10.8365 86.2244 10.8042 86.309 10.7753C88.239 10.0573 89.411 8.70534 89.731 6.81834C89.801 6.38834 89.821 6.08234 89.809 5.50634C89.789 4.72634 89.715 4.26634 89.5 3.65334C88.883 1.89034 87.286 0.799336 84.825 0.451336C84.024 0.339336 84.227 0.343335 80.231 0.335335L76.536 0.332336ZM79.883 2.90234L81.633 2.91034C83.528 2.91734 83.613 2.92033 84.203 3.03733C84.692 3.13033 85.149 3.29834 85.473 3.50734C85.786 3.70634 86.09 4.04934 86.25 4.38934C86.555 5.02434 86.59 6.03734 86.34 6.79234C86.2166 7.18619 85.9934 7.54139 85.692 7.82334C85.118 8.37334 84.305 8.67534 83.157 8.76834C83.004 8.78034 82.254 8.78733 81.387 8.78733H79.883V2.90234ZM93.723 0.332336V18.4233L96.75 18.4163C100.008 18.4083 99.934 18.4083 100.723 18.3003C101.499 18.1951 102.261 18.0005 102.993 17.7203C103.352 17.5793 103.453 17.5263 103.438 17.4903C103.417 17.4302 103.401 17.3687 103.388 17.3063C103.313 17.0333 103.293 16.8393 103.308 16.4883C103.321 16.1253 103.356 15.9463 103.469 15.6403C103.832 14.6503 104.731 13.9323 105.817 13.7603C106.157 13.7083 106.625 13.7233 107.016 13.8053C107.09 13.8203 107.078 13.8393 107.25 13.4053C107.813 11.9553 108.043 10.0203 107.883 8.10033C107.586 4.54633 105.903 2.12134 102.957 1.01234C102.23 0.741004 101.474 0.554113 100.704 0.455338C99.899 0.343338 99.989 0.346336 96.739 0.339336L93.723 0.332336ZM97.067 2.92533H97.934C99.086 2.92533 99.563 2.95834 100.184 3.07534C102.384 3.49334 103.75 4.82334 104.266 7.03534C104.532 8.18534 104.571 9.82234 104.36 11.0813C104.207 11.9973 103.914 12.8223 103.512 13.4653C103.262 13.8693 102.812 14.3773 102.454 14.6573C101.653 15.2853 100.625 15.6583 99.364 15.7773C99.164 15.7973 98.692 15.8153 98.059 15.8233L97.067 15.8333V2.92533Z" fill="currentColor"/><path d="M108.899 16.6001C108.899 17.9821 107.731 19.1001 106.293 19.1001C104.852 19.1001 103.684 17.9821 103.684 16.6001C103.684 15.2171 104.852 14.1001 106.294 14.1001C107.731 14.1001 108.899 15.2171 108.899 16.6001Z" fill="currentColor"/><path d="M105.93 21.9883C104.722 21.8898 103.573 21.4212 102.641 20.6463C102.067 20.1723 101.578 19.5483 101.313 18.9503C101.2 18.6923 101.192 18.6323 101.266 18.6253C101.434 18.6063 102.055 18.4833 102.371 18.4083C102.793 18.3083 102.993 18.2443 103.371 18.0833C103.625 17.9833 103.641 17.9753 103.664 18.0133C103.969 18.5203 104.426 18.9313 104.969 19.1893C105.419 19.3993 105.793 19.4813 106.293 19.4813C106.773 19.4813 107.161 19.3983 107.575 19.2083C107.941 19.0469 108.271 18.8117 108.542 18.5173C108.814 18.2229 109.022 17.8756 109.153 17.4973C109.203 17.3583 109.309 16.8653 109.348 16.6043C109.407 16.1893 109.411 15.8043 109.411 9.71026V3.44025H112.653V9.78825C112.653 13.9693 112.645 16.2343 112.629 16.4173C112.539 17.6123 112.172 18.7113 111.571 19.5973C111.356 19.9173 111.106 20.2118 110.825 20.4753C109.907 21.3493 108.715 21.8533 107.301 21.9693C106.931 21.9993 106.19 22.0103 105.93 21.9883ZM119.532 21.9703C117.372 21.8053 115.332 20.9573 113.742 19.5633L113.504 19.3533L113.602 19.2423C113.657 19.1783 114.09 18.6893 114.559 18.1543L115.419 17.1833L115.649 17.3773C116.789 18.3273 118.145 18.9543 119.512 19.1633C119.911 19.2233 120.774 19.2273 121.152 19.1713C122.317 18.9993 123.062 18.5543 123.426 17.8183C123.547 17.5753 123.606 17.3183 123.621 16.9923C123.657 15.9573 123.203 15.3593 121.93 14.7623C121.715 14.6613 121.395 14.5193 121.223 14.4523C119.983 13.94 118.747 13.418 117.516 12.8863C115.75 12.0383 114.684 10.7753 114.411 9.21626C113.899 6.29126 116.075 3.80626 119.543 3.35426C120.389 3.24914 121.246 3.26936 122.086 3.41426C123.668 3.69426 125.106 4.38226 126.282 5.43226L126.434 5.56626L125.61 6.54626C125.157 7.07926 124.766 7.53925 124.746 7.55825C124.707 7.59525 124.707 7.59525 124.598 7.50925C124.045 7.06858 123.431 6.71144 122.774 6.44926C122.101 6.18914 121.385 6.0595 120.664 6.06726C120.078 6.06726 119.723 6.11225 119.301 6.23925C118.469 6.49325 117.941 6.98226 117.751 7.68126C117.68 7.94326 117.672 8.35426 117.731 8.59626C117.887 9.24326 118.351 9.70625 119.301 10.1623C119.618 10.3153 119.801 10.3943 120.403 10.6323C123.013 11.6643 124.013 12.0943 124.532 12.4043C125.992 13.2823 126.742 14.3543 126.962 15.8863C127.008 16.2003 127.012 16.9853 126.973 17.2653C126.809 18.4053 126.325 19.3573 125.504 20.1453C124.394 21.2223 122.879 21.8273 120.957 21.9693C120.482 21.9935 120.007 21.9945 119.532 21.9703Z" fill="currentColor"/></svg>