<svg width="138" height="22" viewBox="0 0 138 22" fill="none" xmlns="http://www.w3.org/2000/svg"><path d="M29.0532 17.3777H36.6467C36.7527 17.3777 36.8543 17.3356 36.9293 17.2607C37.0042 17.1857 37.0463 17.0841 37.0463 16.9781C37.0463 16.8721 37.0042 16.7704 36.9293 16.6955C36.8543 16.6205 36.7527 16.5784 36.6467 16.5784H29.4985V11.9081H35.8359C35.9419 11.9081 36.0436 11.866 36.1186 11.7911C36.1935 11.7161 36.2356 11.6145 36.2356 11.5085C36.2356 11.4025 36.1935 11.3008 36.1186 11.2259C36.0436 11.1509 35.9419 11.1088 35.8359 11.1088H29.4985V6.54129H36.5782C36.6842 6.54129 36.7858 6.49918 36.8608 6.42423C36.9357 6.34928 36.9778 6.24763 36.9778 6.14163C36.9778 6.03564 36.9357 5.93399 36.8608 5.85904C36.7858 5.78408 36.6842 5.74198 36.5782 5.74198H29.0532C28.939 5.74487 28.8303 5.79151 28.7496 5.87227C28.6688 5.95302 28.6222 6.06172 28.6193 6.17589V16.9438C28.6222 17.058 28.6688 17.1667 28.7496 17.2474C28.8303 17.3282 28.939 17.3748 29.0532 17.3777ZM42.3218 16.9438C42.3247 17.058 42.3714 17.1667 42.4521 17.2474C42.5329 17.3282 42.6416 17.3748 42.7557 17.3777H49.6869C49.7929 17.3777 49.8946 17.3356 49.9695 17.2607C50.0445 17.1857 50.0866 17.0841 50.0866 16.9781C50.0866 16.8721 50.0445 16.7704 49.9695 16.6955C49.8946 16.6205 49.7929 16.5784 49.6869 16.5784H43.2011V6.10738C43.2011 5.9923 43.1554 5.88193 43.074 5.80055C42.9926 5.71918 42.8822 5.67346 42.7672 5.67346C42.6521 5.67346 42.5417 5.71918 42.4603 5.80055C42.379 5.88193 42.3332 5.9923 42.3332 6.10738L42.3218 16.9438ZM55.6133 17.3777H63.2068C63.3128 17.3777 63.4144 17.3356 63.4894 17.2607C63.5643 17.1857 63.6065 17.0841 63.6065 16.9781C63.6065 16.8721 63.5643 16.7704 63.4894 16.6955C63.4144 16.6205 63.3128 16.5784 63.2068 16.5784H56.0472V11.9081H62.3846C62.4906 11.9081 62.5923 11.866 62.6672 11.7911C62.7422 11.7161 62.7843 11.6145 62.7843 11.5085C62.7843 11.4025 62.7422 11.3008 62.6672 11.2259C62.5923 11.1509 62.4906 11.1088 62.3846 11.1088H56.0472V6.54129H63.1269C63.2329 6.54129 63.3345 6.49918 63.4095 6.42423C63.4844 6.34928 63.5265 6.24763 63.5265 6.14163C63.5265 6.03564 63.4844 5.93399 63.4095 5.85904C63.3345 5.78408 63.2329 5.74198 63.1269 5.74198H55.6133C55.4991 5.74487 55.3904 5.79151 55.3097 5.87227C55.2289 5.95302 55.1823 6.06172 55.1794 6.17589V16.9438C55.1823 17.058 55.2289 17.1667 55.3097 17.2474C55.3904 17.3282 55.4991 17.3748 55.6133 17.3777ZM74.1574 17.5718C74.9769 17.5847 75.7905 17.4303 76.5483 17.1182C77.3061 16.806 77.9924 16.3426 78.5651 15.7563C78.6065 15.7184 78.64 15.6726 78.6635 15.6216C78.687 15.5706 78.7001 15.5155 78.7021 15.4594C78.6966 15.3521 78.6515 15.2507 78.5756 15.1748C78.4997 15.0989 78.3983 15.0538 78.291 15.0483C78.2349 15.0503 78.1798 15.0634 78.1288 15.0869C78.0778 15.1104 78.032 15.1439 77.9941 15.1853C77.5079 15.7012 76.9199 16.1106 76.2674 16.3878C75.6149 16.6649 74.912 16.8037 74.2031 16.7954C73.5329 16.7839 72.8717 16.638 72.2588 16.3665C71.6459 16.095 71.0937 15.7033 70.6349 15.2147C70.176 14.726 69.8198 14.1503 69.5874 13.5215C69.3549 12.8928 69.251 12.2238 69.2816 11.5541C69.2509 10.8881 69.3544 10.2226 69.5858 9.59727C69.8172 8.97193 70.1719 8.39945 70.6288 7.9138C71.0857 7.42815 71.6355 7.03923 72.2456 6.77011C72.8556 6.501 73.5135 6.35717 74.1803 6.34717C74.8678 6.34035 75.5499 6.47007 76.1869 6.7288C76.824 6.98754 77.4033 7.37015 77.8914 7.85445C77.9729 7.92777 78.0786 7.96842 78.1883 7.96864C78.3036 7.9659 78.4135 7.91965 78.4962 7.83916C78.5788 7.75867 78.6279 7.64992 78.6336 7.53473C78.6303 7.46724 78.6135 7.4011 78.584 7.34028C78.5546 7.27946 78.5132 7.2252 78.4623 7.18074C77.3057 6.10107 75.7736 5.51523 74.1917 5.54786C73.4122 5.55209 72.6414 5.71216 71.9247 6.01866C71.2079 6.32516 70.5597 6.7719 70.0182 7.33259C69.4766 7.89328 69.0527 8.55661 68.7713 9.28355C68.4899 10.0105 68.3567 10.7864 68.3795 11.5656C68.3519 12.3424 68.4812 13.1168 68.7599 13.8425C69.0386 14.5682 69.4608 15.2302 70.0014 15.7888C70.5419 16.3475 71.1896 16.7913 71.9057 17.0937C72.6218 17.3962 73.3915 17.551 74.1688 17.549L74.1574 17.5718ZM86.9465 17.0123C86.9465 17.1274 86.9922 17.2378 87.0736 17.3192C87.1549 17.4005 87.2653 17.4462 87.3804 17.4462C87.4955 17.4462 87.6058 17.4005 87.6872 17.3192C87.7686 17.2378 87.8143 17.1274 87.8143 17.0123V6.54129H91.5368C91.6428 6.54129 91.7445 6.49918 91.8194 6.42423C91.8944 6.34928 91.9365 6.24763 91.9365 6.14163C91.9365 6.03564 91.8944 5.93399 91.8194 5.85904C91.7445 5.78408 91.6428 5.74198 91.5368 5.74198H83.224C83.118 5.74198 83.0163 5.78408 82.9413 5.85904C82.8664 5.93399 82.8243 6.03564 82.8243 6.14163C82.8243 6.24763 82.8664 6.34928 82.9413 6.42423C83.0163 6.49918 83.118 6.54129 83.224 6.54129H86.9465V17.0123ZM97.0521 17.0123C97.0521 17.1274 97.0978 17.2378 97.1792 17.3192C97.2606 17.4005 97.3709 17.4462 97.486 17.4462C97.6011 17.4462 97.7115 17.4005 97.7928 17.3192C97.8742 17.2378 97.9199 17.1274 97.9199 17.0123V12.559H101.722L105.296 17.2179C105.336 17.2833 105.392 17.3382 105.457 17.3779C105.523 17.4176 105.597 17.4411 105.673 17.4462C105.79 17.4407 105.9 17.392 105.982 17.3096C106.064 17.2273 106.113 17.1172 106.119 17.0009C106.109 16.889 106.061 16.7839 105.982 16.704L102.67 12.4106C104.634 12.1479 106.096 11.0289 106.096 9.08769C106.098 8.28074 105.782 7.50549 105.217 6.92953C104.317 6.13256 103.139 5.72228 101.939 5.78765H97.486C97.3719 5.79054 97.2632 5.83719 97.1824 5.91794C97.1016 5.9987 97.055 6.1074 97.0521 6.22157V17.0123ZM97.9199 11.7711V6.54129H101.894C104.006 6.54129 105.239 7.52331 105.239 9.08769C105.239 10.7662 103.789 11.7483 101.814 11.7483L97.9199 11.7711ZM116.978 17.5718C117.762 17.5737 118.538 17.4181 119.261 17.1145C119.983 16.8108 120.638 16.3652 121.185 15.8041C121.732 15.2429 122.161 14.5777 122.447 13.8476C122.732 13.1176 122.869 12.3377 122.847 11.5541C122.882 10.7639 122.757 9.97474 122.478 9.2343C122.2 8.49386 121.774 7.81746 121.228 7.24591C120.681 6.67435 120.024 6.21947 119.296 5.90871C118.569 5.59795 117.786 5.43773 116.995 5.43773C116.204 5.43773 115.421 5.59795 114.694 5.90871C113.966 6.21947 113.309 6.67435 112.762 7.24591C112.216 7.81746 111.79 8.49386 111.512 9.2343C111.233 9.97474 111.108 10.7639 111.143 11.5541C111.114 12.3369 111.243 13.1174 111.524 13.8487C111.804 14.58 112.23 15.2469 112.775 15.8093C113.32 16.3716 113.974 16.8177 114.696 17.1206C115.418 17.4235 116.195 17.577 116.978 17.5718ZM116.978 16.7954C116.305 16.7868 115.64 16.6433 115.023 16.3734C114.407 16.1035 113.85 15.7127 113.387 15.224C112.924 14.7354 112.564 14.1588 112.327 13.5285C112.091 12.8982 111.983 12.2268 112.011 11.5541C111.977 10.8805 112.08 10.2069 112.314 9.57436C112.548 8.9418 112.909 8.36342 113.373 7.87434C113.838 7.38526 114.397 6.99567 115.016 6.72922C115.636 6.46277 116.303 6.32502 116.978 6.32434C117.651 6.33293 118.316 6.47642 118.932 6.74632C119.549 7.01622 120.106 7.40704 120.569 7.89568C121.032 8.38433 121.392 8.96086 121.629 9.59121C121.865 10.2216 121.973 10.8929 121.945 11.5656C121.979 12.2392 121.876 12.9128 121.642 13.5453C121.408 14.1779 121.047 14.7563 120.583 15.2454C120.118 15.7345 119.559 16.124 118.939 16.3905C118.32 16.6569 117.652 16.7947 116.978 16.7954ZM128.317 17.0237C128.317 17.1343 128.361 17.2403 128.439 17.3185C128.517 17.3966 128.623 17.4405 128.734 17.4405C128.844 17.4405 128.95 17.3966 129.028 17.3185C129.106 17.2403 129.15 17.1343 129.15 17.0237V6.99804L137.143 17.1379C137.189 17.2153 137.252 17.2812 137.328 17.3306C137.403 17.3801 137.488 17.4118 137.577 17.4234H137.646C137.693 17.4234 137.74 17.4139 137.784 17.3954C137.828 17.3769 137.867 17.3498 137.9 17.3157C137.933 17.2816 137.959 17.2412 137.976 17.197C137.993 17.1527 138.001 17.1054 138 17.058V6.08454C138 5.974 137.956 5.86799 137.878 5.78983C137.8 5.71167 137.694 5.66775 137.583 5.66775C137.473 5.66775 137.367 5.71167 137.288 5.78983C137.21 5.86799 137.166 5.974 137.166 6.08454V15.8933L129.322 5.9361C129.275 5.86206 129.211 5.80048 129.136 5.7567C129.06 5.71292 128.975 5.68827 128.888 5.68488H128.751C128.637 5.68777 128.528 5.73442 128.447 5.81518C128.366 5.89593 128.32 6.00463 128.317 6.1188V17.0237ZM6.87789 4.99976C4.12596 4.49733 1.95639 4.99976 1.08856 6.51846C0.78605 7.19407 0.667898 7.93775 0.746121 8.67386C0.824345 9.40996 1.09615 10.1122 1.53389 10.7092C1.57546 10.7663 1.63675 10.806 1.7059 10.8206C1.77505 10.8352 1.84715 10.8236 1.90824 10.788C1.96934 10.7525 2.01509 10.6956 2.03664 10.6283C2.05819 10.561 2.054 10.4881 2.0249 10.4237C1.63915 9.91045 1.39498 9.30489 1.31683 8.66763C1.23867 8.03036 1.32927 7.38375 1.57957 6.79251C2.29895 5.54786 4.24014 5.07969 6.77512 5.54786C6.8463 5.55476 6.91748 5.5347 6.97458 5.49163C7.03168 5.44856 7.07053 5.38563 7.08345 5.31529C7.09637 5.24495 7.08242 5.17232 7.04435 5.11178C7.00628 5.05123 6.94688 5.00718 6.87789 4.98834V4.99976ZM2.96124 12.6389C4.18534 13.9501 5.60235 15.0667 7.16336 15.9504C11.1485 18.2341 15.3963 18.8622 17.4403 17.4462C17.4929 17.4003 17.5268 17.3366 17.5357 17.2673C17.5445 17.198 17.5277 17.1279 17.4883 17.0702C17.4489 17.0125 17.3897 16.9713 17.3219 16.9543C17.2541 16.9373 17.1825 16.9458 17.1205 16.9781C15.2479 18.257 11.217 17.6746 7.40315 15.4708C5.89332 14.6134 4.52263 13.5315 3.33806 12.2621C3.28482 12.2247 3.2204 12.2066 3.15546 12.2108C3.09052 12.215 3.02896 12.2412 2.98099 12.2852C2.93302 12.3292 2.90152 12.3882 2.8917 12.4526C2.88187 12.5169 2.89432 12.5826 2.92698 12.6389H2.96124Z" fill="currentColor"/><path d="M16.8232 12.2959C18.6274 10.172 19.2554 8.03672 18.3876 6.58653C17.9633 5.99795 17.392 5.53104 16.7308 5.23247C16.0695 4.93389 15.3414 4.81413 14.6194 4.88513C14.5548 4.89824 14.4968 4.93324 14.4552 4.98423C14.4135 5.03522 14.3907 5.09904 14.3907 5.16489C14.3907 5.23074 14.4135 5.29456 14.4552 5.34555C14.4968 5.39654 14.5548 5.43155 14.6194 5.44465C15.2443 5.37654 15.8762 5.47233 16.4528 5.72261C17.0294 5.97288 17.531 6.36901 17.908 6.872C18.6274 8.11665 18.0679 10.0236 16.4007 11.9876C16.3715 12.0153 16.3484 12.0487 16.3331 12.0859C16.3177 12.1231 16.3104 12.1631 16.3115 12.2033C16.3127 12.2434 16.3223 12.2829 16.3398 12.3192C16.3573 12.3554 16.3822 12.3875 16.413 12.4134C16.4437 12.4393 16.4796 12.4584 16.5183 12.4695C16.557 12.4805 16.5975 12.4833 16.6373 12.4776C16.6771 12.4719 16.7153 12.4579 16.7493 12.4364C16.7833 12.4149 16.8124 12.3865 16.8346 12.353L16.8232 12.2959ZM12.2557 5.09067C10.4886 5.49037 8.79391 6.16055 7.23142 7.07754C3.12066 9.45265 0.380146 12.9582 0.802641 15.4932C0.821882 15.5592 0.864273 15.616 0.922031 15.6532C0.979789 15.6904 1.04904 15.7056 1.11706 15.6959C1.18509 15.6861 1.24733 15.6522 1.29235 15.6003C1.33737 15.5484 1.36216 15.482 1.36216 15.4133C0.973923 13.1638 3.52031 9.85231 7.4598 7.56855C8.96867 6.67969 10.6056 6.02879 12.3128 5.63877C12.355 5.63843 12.3966 5.62872 12.4347 5.61034C12.4727 5.59197 12.5062 5.56538 12.5327 5.53251C12.5592 5.49963 12.5781 5.46128 12.588 5.42023C12.5979 5.37917 12.5985 5.33643 12.5899 5.29509C12.5813 5.25374 12.5636 5.21483 12.5382 5.18114C12.5127 5.14745 12.4801 5.11984 12.4426 5.10029C12.4052 5.08073 12.3639 5.06973 12.3217 5.06806C12.2795 5.0664 12.2375 5.07412 12.1986 5.09067H12.2557Z" fill="currentColor"/><path d="M5.53023 17.2632C6.46657 19.8896 8.00811 21.511 9.74377 21.511C10.4562 21.4379 11.1374 21.1804 11.72 20.764C12.3027 20.3475 12.7668 19.7864 13.0666 19.1359C13.0956 19.1047 13.1173 19.0674 13.13 19.0268C13.1428 18.9861 13.1462 18.9432 13.1402 18.901C13.1341 18.8588 13.1187 18.8186 13.0951 18.7831C13.0715 18.7477 13.0402 18.718 13.0036 18.6962C12.967 18.6744 12.926 18.6611 12.8836 18.6572C12.8412 18.6533 12.7984 18.659 12.7585 18.6738C12.7185 18.6886 12.6824 18.7121 12.6527 18.7427C12.6231 18.7733 12.6006 18.8101 12.587 18.8504C12.3331 19.4173 11.9367 19.9088 11.4365 20.277C10.9362 20.6452 10.3491 20.8776 9.73235 20.9515C8.29358 20.9515 6.92332 19.5127 6.0555 17.0805C6.02096 17.0242 5.96797 16.9816 5.90555 16.96C5.84313 16.9384 5.77515 16.9391 5.7132 16.962C5.65124 16.9849 5.59914 17.0286 5.56578 17.0856C5.53241 17.1426 5.51985 17.2094 5.53023 17.2747V17.2632ZM14.1172 16.7037C14.6277 15.0117 14.8817 13.2527 14.8708 11.4853C14.8708 6.81504 13.2379 2.79562 10.9085 1.75651C10.8433 1.74028 10.7746 1.74754 10.7142 1.77699C10.6539 1.80645 10.6059 1.85623 10.5786 1.91758C10.5513 1.97893 10.5466 2.04792 10.5651 2.11244C10.5837 2.17696 10.6244 2.23288 10.6801 2.27036C12.7583 3.19528 14.3113 7.00916 14.3113 11.4739C14.3258 13.1866 14.0833 14.8917 13.5919 16.5324C13.5821 16.5994 13.5964 16.6677 13.6322 16.7251C13.668 16.7825 13.7231 16.8253 13.7875 16.8458C13.852 16.8664 13.9217 16.8634 13.9842 16.8374C14.0466 16.8114 14.0978 16.764 14.1286 16.7037H14.1172ZM19.4269 16.4753C19.4224 16.2099 19.3396 15.9516 19.1888 15.7331C19.038 15.5145 18.8261 15.3454 18.5795 15.2469C18.3329 15.1484 18.0627 15.1249 17.8029 15.1795C17.543 15.234 17.3051 15.3641 17.1189 15.5534C16.9328 15.7428 16.8067 15.9829 16.7565 16.2436C16.7064 16.5043 16.7343 16.7741 16.837 17.0189C16.9396 17.2638 17.1123 17.4729 17.3333 17.62C17.5544 17.7671 17.814 17.8456 18.0795 17.8456C18.4368 17.8456 18.7796 17.7036 19.0323 17.4509C19.2849 17.1983 19.4269 16.8555 19.4269 16.4982V16.4753ZM18.8674 16.4753C18.8674 16.6312 18.8212 16.7835 18.7346 16.9131C18.648 17.0426 18.525 17.1436 18.381 17.2033C18.237 17.2629 18.0786 17.2785 17.9258 17.2481C17.7729 17.2177 17.6325 17.1427 17.5224 17.0325C17.4122 16.9223 17.3371 16.7819 17.3067 16.6291C17.2763 16.4762 17.2919 16.3178 17.3516 16.1738C17.4112 16.0299 17.5122 15.9068 17.6418 15.8202C17.7713 15.7337 17.9237 15.6874 18.0795 15.6874C18.183 15.6874 18.2854 15.7078 18.381 15.7474C18.4766 15.787 18.5634 15.845 18.6366 15.9182C18.7098 15.9914 18.7678 16.0782 18.8074 16.1738C18.847 16.2694 18.8674 16.3719 18.8674 16.4753ZM1.38521 17.8456C1.65072 17.8456 1.91031 17.7671 2.13137 17.62C2.35243 17.4729 2.52511 17.2638 2.62773 17.0189C2.73035 16.7741 2.75833 16.5043 2.70816 16.2436C2.658 15.9829 2.53192 15.7428 2.34576 15.5534C2.15959 15.3641 1.92165 15.234 1.6618 15.1795C1.40195 15.1249 1.13177 15.1484 0.885202 15.2469C0.638632 15.3454 0.426655 15.5145 0.27589 15.7331C0.125125 15.9516 0.0422915 16.2099 0.0377912 16.4753C0.0347593 16.6542 0.0673721 16.8319 0.133727 16.998C0.200083 17.1641 0.298852 17.3154 0.424275 17.4429C0.549697 17.5705 0.699262 17.6717 0.864244 17.7409C1.02923 17.81 1.20633 17.8456 1.38521 17.8456ZM1.38521 17.2861C1.22938 17.2861 1.07705 17.2399 0.947477 17.1533C0.817908 17.0667 0.716921 16.9437 0.657287 16.7997C0.597653 16.6557 0.582051 16.4973 0.612452 16.3445C0.642853 16.1916 0.717893 16.0512 0.828082 15.9411C0.938271 15.8309 1.07866 15.7558 1.2315 15.7254C1.38434 15.695 1.54275 15.7106 1.68672 15.7703C1.83069 15.8299 1.95375 15.9309 2.04032 16.0604C2.1269 16.19 2.17311 16.3423 2.17311 16.4982C2.17311 16.7071 2.0901 16.9075 1.94234 17.0553C1.79458 17.2031 1.59417 17.2861 1.38521 17.2861Z" fill="currentColor"/><path d="M9.74385 3.18409C10.0113 3.18405 10.2727 3.10442 10.4948 2.95533C10.7168 2.80624 10.8895 2.59444 10.9907 2.3469C11.092 2.09935 11.1173 1.82727 11.0635 1.56529C11.0096 1.30331 10.879 1.06329 10.6882 0.875796C10.4975 0.688298 10.2553 0.561808 9.99244 0.512425C9.72958 0.463043 9.45797 0.493005 9.2122 0.598498C8.96642 0.703992 8.7576 0.880244 8.61233 1.10481C8.46706 1.32937 8.3919 1.59209 8.39643 1.85951C8.39643 2.21687 8.53839 2.55959 8.79108 2.81228C9.04377 3.06497 9.38649 3.20693 9.74385 3.20693V3.18409ZM9.74385 2.62457C9.58802 2.62457 9.43569 2.57836 9.30612 2.49179C9.17655 2.40521 9.07556 2.28216 9.01593 2.13819C8.9563 1.99422 8.94069 1.8358 8.97109 1.68296C9.0015 1.53013 9.07654 1.38974 9.18672 1.27955C9.29691 1.16936 9.4373 1.09432 9.59014 1.06392C9.74298 1.03351 9.9014 1.04912 10.0454 1.10875C10.1893 1.16839 10.3124 1.26937 10.399 1.39894C10.4855 1.52851 10.5317 1.68084 10.5317 1.83667C10.5317 2.04564 10.4487 2.24604 10.301 2.3938C10.1532 2.54156 9.95282 2.62457 9.74385 2.62457ZM9.94939 12.479C9.76129 12.5204 9.56512 12.505 9.38583 12.4346C9.20655 12.3642 9.05227 12.242 8.94262 12.0836C8.83298 11.9253 8.77292 11.7379 8.77011 11.5453C8.76729 11.3527 8.82184 11.1636 8.92681 11.0022C9.03178 10.8407 9.18242 10.7141 9.35957 10.6384C9.53672 10.5628 9.73236 10.5416 9.92159 10.5775C10.1108 10.6135 10.2851 10.7049 10.4222 10.8401C10.5593 10.9754 10.6531 11.1484 10.6916 11.3371C10.7425 11.5868 10.6933 11.8464 10.5544 12.0601C10.4155 12.2737 10.1982 12.4242 9.94939 12.479Z" fill="currentColor"/></svg>