<svg width="98" height="32" viewBox="0 0 98 32" fill="none" xmlns="http://www.w3.org/2000/svg"><path d="M0 25.7143L0.191501 25.4461L9.24824 8.26128L9.26737 8.07935L5.27507 0.580138C4.94042 -0.0480353 3.9987 0.110722 3.88901 0.813945L0 25.7143Z" fill="currentColor"/><path d="M0.112793 25.5096L0.257569 25.2272L9.21852 8.22242L5.23714 0.692728C4.90609 0.0710487 4.06567 0.229535 3.95625 0.925452L0.112793 25.5096Z" fill="currentColor"/><path d="M0.112793 25.5096L0.257569 25.2272L9.21852 8.22242L5.23714 0.692728C4.90609 0.0710487 4.06567 0.229535 3.95625 0.925452L0.112793 25.5096Z" fill="currentColor"/><path d="M12.178 13.7518L15.1507 10.7075L12.1772 5.03102C11.8949 4.49368 11.1068 4.49215 10.8275 5.03102L9.23877 8.06184V8.31982L12.178 13.7518Z" fill="currentColor"/><path d="M12.125 13.6249L15.015 10.6651L12.125 5.16212C11.8506 4.63894 11.1839 4.585 10.9124 5.108L9.31539 8.18392L9.26758 8.34124L12.125 13.6249Z" fill="currentColor"/><path d="M12.125 13.6249L15.015 10.6651L12.125 5.16212C11.8506 4.63894 11.1839 4.585 10.9124 5.108L9.31539 8.18392L9.26758 8.34124L12.125 13.6249Z" fill="currentColor"/><path d="M9.24698 8.04395L0 25.7141L0.0867753 25.6268L0.402125 25.4987L11.9912 13.9527L12.1379 13.5531L9.24698 8.04395Z" fill="currentColor"/><path d="M12.549 31.537L23.0374 25.6875L20.0431 7.24082C19.9493 6.6637 19.2414 6.43549 18.8283 6.84934L0 25.7142L10.4282 31.5366C10.7523 31.7176 11.1174 31.8126 11.4886 31.8127C11.8598 31.8128 12.2249 31.7179 12.5491 31.5371" fill="currentColor"/><path d="M22.9434 25.6387L19.971 7.33272C19.8781 6.75993 19.2891 6.52297 18.8792 6.93366L0.117188 25.6784L10.4308 31.4424C11.0848 31.8075 11.8813 31.8077 12.5356 31.4429L22.9434 25.6387Z" fill="currentColor"/><path d="M12.549 31.3649C11.8906 31.7326 11.0871 31.7324 10.4281 31.3644L0.0838888 25.6258L0 25.7144L10.4282 31.5369C11.0872 31.9049 11.8898 31.9049 12.5491 31.5373L23.0375 25.6878L23.0118 25.5298L12.549 31.3649Z" fill="currentColor"/><path d="M30.9788 23.0057H29.1938V9.1137H37.2938V10.8207H30.9788V15.3807H36.6838V17.0507H30.9788V23.0057ZM40.4318 11.1117C40.1858 11.3577 39.8888 11.4817 39.5398 11.4817C39.3737 11.4846 39.2088 11.4532 39.0553 11.3895C38.9019 11.3259 38.7632 11.2313 38.6478 11.1117C38.5287 10.996 38.4345 10.8572 38.3708 10.7039C38.3072 10.5505 38.2756 10.3857 38.2778 10.2197C38.275 10.0536 38.3063 9.88865 38.37 9.73519C38.4337 9.58172 38.5282 9.44301 38.6478 9.3277C38.7635 9.20857 38.9023 9.11431 39.0557 9.05069C39.2091 8.98707 39.3738 8.95542 39.5398 8.9577C39.706 8.95483 39.8709 8.9862 40.0244 9.04986C40.1778 9.11351 40.3165 9.20809 40.4318 9.3277C40.551 9.44338 40.6452 9.58215 40.7089 9.73553C40.7725 9.88891 40.8041 10.0537 40.8018 10.2197C40.8047 10.3858 40.7733 10.5507 40.7097 10.7042C40.646 10.8577 40.5515 10.9964 40.4318 11.1117ZM40.4318 23.0057H38.6468V13.4987H40.4318V23.0057ZM44.2848 23.0057H42.4988V13.4987H44.2058V15.0507H44.2828C44.4628 14.5337 44.8358 14.1067 45.3988 13.7707C45.9618 13.4347 46.4988 13.2657 47.0388 13.2657C47.5788 13.2657 48.0158 13.3437 48.3788 13.4987L47.6988 15.1687C47.4658 15.0687 47.1488 15.0327 46.7488 15.0327C46.1018 15.0327 45.5288 15.2877 45.0318 15.7987C44.5348 16.3097 44.2848 16.9787 44.2848 17.8067V23.0057ZM53.0728 23.3057C51.6368 23.3057 50.4698 22.8277 49.5708 21.8697C48.6718 20.9117 48.2208 19.7037 48.2208 18.2417C48.2208 16.8577 48.6568 15.6677 49.5208 14.6717C50.3848 13.6757 51.5208 13.1777 52.8678 13.1777C54.2678 13.1777 55.4058 13.6377 56.2538 14.5557C57.1018 15.4737 57.5238 16.7027 57.5238 18.2427L57.5038 18.5727H50.0038C50.0558 19.5297 50.3758 20.2867 50.9638 20.8427C51.2367 21.1107 51.5597 21.3223 51.9143 21.4654C52.269 21.6086 52.6484 21.6803 53.0308 21.6767C54.3108 21.6767 55.1778 21.1337 55.6308 20.0467L57.2308 20.7067C56.9308 21.4437 56.4088 22.0617 55.6978 22.5597C54.9868 23.0577 54.1128 23.3067 53.0778 23.3067L53.0728 23.3057ZM55.6328 17.1057C55.5928 16.5627 55.3448 16.0457 54.8858 15.5537C54.4268 15.0617 53.7438 14.8167 52.8388 14.8167C52.1788 14.8167 51.6068 15.0237 51.1218 15.4367C50.6368 15.8497 50.3038 16.4067 50.1218 17.1067H55.6218L55.6328 17.1057ZM63.9958 23.3057C63.2708 23.3057 62.6208 23.1507 62.0458 22.8397C61.4708 22.5287 61.0398 22.1417 60.7458 21.6757H60.6788V22.9957H58.9718V9.1137H60.7568V13.4987L60.6788 14.8187H60.7568C61.0418 14.3527 61.4718 13.9647 62.0568 13.6547C62.6418 13.3447 63.2828 13.1887 64.0068 13.1887C65.2368 13.1887 66.3068 13.6737 67.1888 14.6437C68.0708 15.6137 68.5288 16.8167 68.5288 18.2437C68.5288 19.6707 68.0828 20.8837 67.1888 21.8437C66.2948 22.8037 65.2358 23.2987 64.0068 23.2987L63.9958 23.3057ZM63.6958 21.6757C64.5238 21.6757 65.2358 21.3617 65.8298 20.7357C66.4238 20.1097 66.7218 19.2777 66.7218 18.2427C66.7218 17.2077 66.4238 16.3767 65.8298 15.7497C65.2358 15.1227 64.5228 14.8097 63.6958 14.8097C63.2927 14.8018 62.8925 14.8808 62.5226 15.0412C62.1526 15.2017 61.8216 15.4399 61.5518 15.7397C60.9638 16.3697 60.6688 17.1947 60.6688 18.2427C60.6688 19.2907 60.9628 20.1247 61.5518 20.7457C62.1408 21.3667 62.8548 21.6777 63.6958 21.6777V21.6757ZM73.2088 23.3057C72.2088 23.3057 71.3558 23.0057 70.6768 22.4327C69.9978 21.8597 69.6568 21.0807 69.6568 20.1327C69.6568 19.0977 70.0568 18.2867 70.8598 17.6977C71.6628 17.1087 72.6518 16.8147 73.8298 16.8147C74.8778 16.8147 75.7378 17.0087 76.4098 17.3967V17.1247C76.4098 16.4247 76.1698 15.8667 75.6918 15.4467C75.2138 15.0267 74.6248 14.8167 73.9258 14.8167C73.4078 14.8167 72.9388 14.9397 72.5188 15.1867C72.1192 15.4083 71.8128 15.7665 71.6558 16.1957L70.0258 15.4977C70.2458 14.9277 70.6788 14.4017 71.3258 13.9177C71.9728 13.4337 72.8258 13.1897 73.8858 13.1897C75.1018 13.1897 76.1108 13.5457 76.9128 14.2567C77.7148 14.9677 78.1158 15.9707 78.1158 17.2637V23.0067H76.4188V21.6867H76.3408C75.6288 22.7727 74.5878 23.3167 73.2168 23.3167L73.2088 23.3057ZM73.5088 21.6757C74.2458 21.6757 74.9158 21.4007 75.5168 20.8507C76.1178 20.3007 76.4188 19.6507 76.4188 18.9007C75.9148 18.4867 75.1588 18.2807 74.1488 18.2807C73.2818 18.2807 72.6288 18.4687 72.1888 18.8437C71.7488 19.2187 71.5288 19.6587 71.5288 20.1637C71.5288 20.6297 71.7288 20.9977 72.1308 21.2697C72.5328 21.5417 72.9908 21.6777 73.5088 21.6777V21.6757ZM83.3088 23.3057C82.2488 23.3057 81.3718 23.0457 80.6788 22.5297C80.0037 22.0341 79.477 21.3632 79.1558 20.5897L80.7558 19.9297C81.2598 21.1297 82.1208 21.7147 83.3358 21.7147C83.8918 21.7147 84.3478 21.5917 84.7038 21.3447C85.0598 21.0977 85.2378 20.7747 85.2378 20.3747C85.2378 19.7547 84.8048 19.3347 83.9378 19.1147L82.0178 18.6487C81.4098 18.4937 80.8338 18.1987 80.2908 17.7657C79.7478 17.3327 79.4788 16.7687 79.4788 16.0207C79.4788 15.1807 79.8508 14.4977 80.5948 13.9737C81.3388 13.4497 82.2218 13.1877 83.2448 13.1877C84.0848 13.1877 84.8448 13.3877 85.4948 13.7597C86.1448 14.1317 86.6268 14.6877 86.9118 15.3997L85.3598 16.0397C85.0098 15.1997 84.2858 14.7797 83.1868 14.7797C82.6568 14.7797 82.2098 14.8797 81.8468 15.1097C81.4838 15.3397 81.3038 15.6267 81.3038 16.0017C81.3038 16.5447 81.7238 16.9137 82.5638 17.1077L84.4458 17.5537C85.3378 17.7607 85.9978 18.1167 86.4258 18.6207C86.8538 19.1247 87.0658 19.6947 87.0658 20.3277C87.0658 21.1817 86.7158 21.8927 86.0178 22.4617C85.3198 23.0307 84.4198 23.3157 83.3208 23.3157L83.3088 23.3057ZM92.8158 23.3057C91.3798 23.3057 90.2118 22.8277 89.3138 21.8697C88.4158 20.9117 87.9638 19.7037 87.9638 18.2417C87.9638 16.8577 88.3998 15.6677 89.2638 14.6717C90.1278 13.6757 91.2638 13.1777 92.6108 13.1777C94.0108 13.1777 95.1488 13.6377 95.9968 14.5557C96.8448 15.4737 97.2668 16.7027 97.2668 18.2427V18.5727H89.7668C89.8168 19.5297 90.1388 20.2867 90.7268 20.8427C90.9996 21.1106 91.3224 21.3222 91.6769 21.4653C92.0314 21.6084 92.4106 21.6802 92.7928 21.6767C94.0728 21.6767 94.9399 21.1337 95.3929 20.0467L96.9928 20.7067C96.6928 21.4437 96.1708 22.0617 95.4598 22.5597C94.7488 23.0577 93.8748 23.3067 92.8398 23.3067L92.8158 23.3057ZM95.3758 17.1057C95.3358 16.5627 95.0878 16.0457 94.6288 15.5537C94.1698 15.0617 93.4868 14.8167 92.5818 14.8167C91.9526 14.8056 91.3414 15.0267 90.8648 15.4377C90.3798 15.8517 90.0468 16.4077 89.8648 17.1077H95.3649L95.3758 17.1057Z" fill="currentColor"/></svg>