<svg width="111" height="36" viewBox="0 0 111 36" fill="none" xmlns="http://www.w3.org/2000/svg"><path d="M42.7458 10.5884C42.1769 10.5884 41.6577 10.6641 41.1884 10.8156C40.7333 10.955 40.3343 11.1897 39.9916 11.5196C39.6623 11.8361 39.3964 12.2478 39.1937 12.7549C39.0038 13.2612 38.8961 13.8656 38.8705 14.5682C38.8307 15.7081 38.8307 16.8481 38.8705 17.988C38.8961 18.697 39.0038 19.3015 39.1937 19.8014C39.3964 20.3077 39.6623 20.7258 39.9916 21.0558C40.3329 21.3722 40.7319 21.6069 41.1884 21.7598C41.6577 21.8992 42.1769 21.9689 42.7458 21.9689C43.3047 21.9689 43.8238 21.8931 44.3031 21.7417C44.7824 21.5767 45.1942 21.337 45.5383 21.0227C45.8939 20.6935 46.1734 20.2753 46.3768 19.7683C46.5794 19.262 46.6808 18.6668 46.6808 17.9827V17.0141H43.3708C43.0921 17.0141 42.9527 16.8719 42.9527 16.5875V16.3208C42.9527 16.0363 43.0921 15.8941 43.3708 15.8941H47.4349C47.7194 15.8941 47.8616 16.0363 47.8616 16.3208V17.9923C47.8616 18.7532 47.7478 19.4501 47.5203 20.083C47.2927 20.7038 46.957 21.2428 46.5133 21.7001C46.0831 22.1552 45.544 22.5097 44.8962 22.7636C44.2562 23.0039 43.5344 23.1241 42.7308 23.1241C41.9074 23.1241 41.1856 23.0039 40.5655 22.7636C39.9447 22.5104 39.4191 22.162 38.9889 21.7182C38.5708 21.2752 38.2479 20.7497 38.0203 20.1416C37.8049 19.5208 37.6847 18.8367 37.6598 18.0893C37.6342 17.5204 37.6214 16.9188 37.6214 16.2845C37.6214 15.6445 37.6342 15.0429 37.6598 14.4797C37.6854 13.733 37.812 13.0553 38.0395 12.4466C38.2671 11.8258 38.59 11.2938 39.0081 10.8508C39.4383 10.4078 39.9638 10.0657 40.5847 9.82467C41.2055 9.57151 41.9209 9.44493 42.7308 9.44493C43.6055 9.44493 44.3529 9.57791 44.973 9.84387C45.5938 10.1098 46.1005 10.4298 46.493 10.8039C46.8856 11.1715 47.1771 11.558 47.3677 11.9634C47.5576 12.3687 47.6589 12.7044 47.6717 12.9703C47.6845 13.0841 47.6525 13.179 47.5757 13.2551C47.4996 13.3191 47.3983 13.3511 47.2717 13.3511H46.8536C46.7398 13.3511 46.6573 13.3262 46.6061 13.2765C46.5563 13.2125 46.5058 13.1111 46.4546 12.9725C46.3537 12.688 46.2114 12.4036 46.028 12.1191C45.8502 11.8347 45.6105 11.5815 45.309 11.3596C45.0054 11.1321 44.6445 10.9482 44.2263 10.8082C43.8082 10.6688 43.314 10.5991 42.7436 10.5991L42.7458 10.5884ZM51.7145 14.3677C52.1696 13.493 53.0308 13.0557 54.298 13.0557H55.002C55.2807 13.0557 55.4201 13.195 55.4201 13.4738V13.7405C55.4201 14.0192 55.2807 14.1586 55.002 14.1586H54.1849C53.424 14.1586 52.8224 14.3801 52.3801 14.8232C51.937 15.2662 51.7155 15.8678 51.7155 16.628V22.5161C51.7155 22.6427 51.6711 22.744 51.5822 22.8201C51.5061 22.8962 51.4048 22.9342 51.2782 22.9342H50.9742C50.6954 22.9342 50.556 22.7949 50.556 22.5161V13.4919C50.556 13.3654 50.5941 13.264 50.6702 13.1879C50.7463 13.099 50.8476 13.0546 50.9742 13.0546H51.2782C51.4048 13.0546 51.5061 13.099 51.5822 13.1879C51.6711 13.264 51.7155 13.3654 51.7155 13.4919V14.3666L51.7145 14.3677ZM63.448 22.9396C63.1692 22.9396 63.0299 22.8002 63.0299 22.5214V21.6286C62.9161 21.8064 62.7643 21.9842 62.5744 22.162C62.3966 22.3397 62.1751 22.498 61.9098 22.6366C61.6439 22.776 61.3239 22.8898 60.9498 22.978C60.5822 23.0789 60.1519 23.1294 59.6591 23.1294C59.204 23.1294 58.7667 23.0597 58.3471 22.9204C57.9418 22.7689 57.5809 22.5662 57.2644 22.3124C56.9608 22.0592 56.714 21.7616 56.5241 21.4195C56.3464 21.0782 56.2575 20.7049 56.2575 20.2995C56.2575 19.8693 56.3464 19.4828 56.5241 19.14C56.714 18.7987 56.9736 18.5011 57.3028 18.2472C57.6321 17.9813 58.0246 17.7661 58.4804 17.6019C58.9498 17.4241 59.4629 17.2975 60.0197 17.2221L63.0213 16.804V16.1394C63.0213 15.4553 62.8123 14.9234 62.3941 14.5437C61.9888 14.1639 61.3367 13.9741 60.4378 13.9741C59.7288 13.9741 59.1777 14.1135 58.7845 14.3922C58.4047 14.6582 58.1651 14.9497 58.0655 15.2669C58.0157 15.4184 57.9524 15.5261 57.8756 15.5901C57.8116 15.6399 57.7227 15.6648 57.609 15.6648H57.3423C57.2285 15.6648 57.1272 15.6267 57.0383 15.5506C56.9622 15.4617 56.9242 15.3604 56.9242 15.2466C56.9242 15.0688 56.9874 14.8473 57.114 14.5821C57.2406 14.3161 57.4433 14.0566 57.722 13.8034C58.0065 13.5502 58.3738 13.3351 58.8239 13.1581C59.267 12.9682 59.806 12.8733 60.441 12.8733C61.1877 12.8733 61.8021 12.9746 62.2842 13.1773C62.7778 13.3799 63.1643 13.6459 63.4437 13.9751C63.7225 14.2916 63.9124 14.6461 64.0133 15.0386C64.1271 15.4312 64.184 15.8177 64.184 16.1981V22.5236C64.184 22.8023 64.0446 22.9417 63.7659 22.9417H63.4427L63.448 22.9396ZM59.8575 22.0275C60.2878 22.0275 60.6931 21.9579 61.0736 21.8185C61.4661 21.667 61.8082 21.4455 62.0997 21.1539C62.3842 20.8695 62.6117 20.5022 62.7824 20.052C62.9474 19.609 63.0299 19.0899 63.0299 18.4947V17.8493L60.5797 18.1907C58.4776 18.4751 57.4266 19.1464 57.4266 20.2046C57.4266 20.521 57.4963 20.7934 57.6356 21.0217C57.7871 21.2492 57.977 21.4391 58.2052 21.5913C58.4328 21.7427 58.6924 21.8565 58.9839 21.9326C59.2684 21.9966 59.5599 22.0286 59.8586 22.0286L59.8575 22.0275ZM71.5441 23.1294C70.7463 23.1294 70.0942 22.9872 69.5878 22.7028C69.0815 22.4183 68.6698 22.0638 68.3526 21.6393V26.1407C68.3526 26.4194 68.2132 26.5588 67.9345 26.5588H67.6113C67.3325 26.5588 67.1931 26.4194 67.1931 26.1407V13.4738C67.1931 13.195 67.3325 13.0557 67.6113 13.0557H67.9345C68.2132 13.0557 68.3526 13.195 68.3526 13.4738V14.3666C68.6691 13.9364 69.0808 13.5819 69.5878 13.3031C70.0942 13.0187 70.7463 12.8765 71.5441 12.8765C72.2787 12.8765 72.8992 13.0094 73.4055 13.2754C73.9246 13.5286 74.3428 13.8706 74.6599 14.3015C74.9764 14.7197 75.2039 15.2011 75.3426 15.7458C75.4941 16.2778 75.583 16.8225 75.6093 17.38C75.6221 17.5699 75.6285 17.7789 75.6285 18.0072C75.6285 18.2348 75.6221 18.4438 75.6093 18.6344C75.5837 19.1934 75.4948 19.7445 75.3426 20.2878C75.2032 20.8197 74.9757 21.3011 74.6599 21.7321C74.3435 22.1502 73.9253 22.4923 73.4055 22.7582C72.8992 23.0114 72.2787 23.138 71.5441 23.138V23.1294ZM68.3526 17.316C68.3398 17.5059 68.3334 17.7526 68.3334 18.0563C68.3334 18.3599 68.3398 18.6067 68.3526 18.7966C68.3654 19.1763 68.4287 19.5628 68.5425 19.956C68.6691 20.3358 68.8589 20.6778 69.1121 20.9822C69.3653 21.2858 69.6853 21.539 70.0721 21.7417C70.4519 21.9315 70.9077 22.0265 71.4396 22.0265C71.9986 22.0265 72.4608 21.9315 72.8263 21.7417C73.206 21.5518 73.51 21.2986 73.7383 20.9822C73.9787 20.6529 74.1494 20.2796 74.2503 19.8622C74.3641 19.4319 74.4338 18.9886 74.4594 18.532C74.4722 18.1765 74.4722 17.822 74.4594 17.4685C74.4338 17.0134 74.3641 16.5761 74.2503 16.1565C74.1494 15.7384 73.9787 15.3711 73.7383 15.0546C73.5108 14.7254 73.2068 14.4658 72.8263 14.2759C72.4587 14.0733 71.9964 13.9719 71.4396 13.9719C70.8949 13.9719 70.4327 14.0733 70.0529 14.2759C69.6732 14.4786 69.3532 14.7446 69.0929 15.0738C68.8525 15.3903 68.6687 15.7448 68.5414 16.1373C68.4276 16.5299 68.3644 16.9224 68.3516 17.3149L68.3526 17.316ZM79.3747 14.3677C79.716 13.9246 80.1278 13.5638 80.6099 13.285C81.0892 13.0062 81.7413 12.8669 82.5662 12.8669C83.2119 12.8669 83.7755 12.9746 84.2569 13.1901C84.7362 13.4055 85.1351 13.7031 85.4537 14.0829C85.783 14.4626 86.0297 14.9124 86.194 15.4322C86.359 15.9514 86.4415 16.5149 86.4415 17.1229V22.5182C86.4415 22.797 86.3021 22.9364 86.0233 22.9364H85.7033C85.4246 22.9364 85.2852 22.797 85.2852 22.5182V17.2168C85.2852 16.2034 85.0384 15.412 84.5449 14.8424C84.0514 14.2592 83.3296 13.9677 82.3795 13.9677C81.4679 13.9677 80.7397 14.2521 80.195 14.821C79.6502 15.3899 79.3779 16.1889 79.3779 17.2179V22.5193C79.3779 22.7981 79.2385 22.9374 78.9597 22.9374H78.6365C78.3578 22.9374 78.2184 22.7981 78.2184 22.5193V9.86307C78.2184 9.58431 78.3578 9.44493 78.6365 9.44493H78.9597C79.2385 9.44493 79.3779 9.58431 79.3779 9.86307V14.3645L79.3747 14.3677ZM94.191 9.44813C94.9255 9.44813 95.5968 9.55586 96.2049 9.77133C96.8129 9.9868 97.332 10.3161 97.7622 10.7591C98.2052 11.1893 98.5473 11.734 98.7884 12.3932C99.0415 13.0389 99.1809 13.8052 99.2065 14.692C99.2321 15.2609 99.2449 15.7928 99.2449 16.2877C99.2449 16.7812 99.2321 17.3132 99.2065 17.8835C99.1425 19.6947 98.6803 21.0245 97.8198 21.8729L99.0358 23.5828C99.0486 23.6084 99.0614 23.6333 99.0742 23.6574C99.087 23.683 99.0934 23.7275 99.0934 23.7908C99.0934 23.8918 99.0554 23.9807 98.9793 24.0575C98.9032 24.1335 98.8143 24.1716 98.7126 24.1716H98.2945C98.1551 24.1716 98.0349 24.1147 97.934 24.0009C97.833 23.8999 97.7505 23.8111 97.6865 23.7342L96.8481 22.5748C96.0872 22.9424 95.2004 23.1262 94.1878 23.1262C92.6048 23.1262 91.3827 22.7021 90.5216 21.8537C89.6732 21.0053 89.2234 19.6819 89.1722 17.8835C89.1466 17.3146 89.1338 16.7827 89.1338 16.2877C89.1338 15.7942 89.1466 15.2623 89.1722 14.692C89.1978 13.8052 89.3308 13.0389 89.5711 12.3932C89.8243 11.7347 90.1663 11.19 90.5973 10.7591C91.0403 10.3161 91.5594 9.9868 92.1547 9.77133C92.7627 9.55586 93.4404 9.44813 94.1878 9.44813H94.191ZM94.191 10.5895C93.659 10.5895 93.1648 10.672 92.7083 10.837C92.2531 10.9884 91.8542 11.2352 91.5114 11.5772C91.1701 11.9186 90.8977 12.3559 90.6944 12.8893C90.5045 13.4212 90.3968 14.0541 90.3712 14.788C90.3584 15.0724 90.3456 15.3384 90.3328 15.5858C90.3328 15.8262 90.3328 16.0609 90.3328 16.2898C90.3328 16.5174 90.3328 16.7571 90.3328 17.0088C90.3456 17.2492 90.3584 17.5087 90.3712 17.7875C90.3968 18.5342 90.5045 19.1742 90.6944 19.7075C90.897 20.2266 91.163 20.6569 91.4922 20.9982C91.8336 21.3395 92.2325 21.5927 92.6891 21.7577C93.1442 21.9091 93.6434 21.9849 94.1867 21.9849C94.7314 21.9849 95.2306 21.9091 95.6843 21.7577C96.1394 21.5927 96.532 21.3395 96.8619 20.9982C97.2033 20.6569 97.4692 20.2266 97.6598 19.7075C97.8625 19.1756 97.9763 18.5356 98.0012 17.7875C98.014 17.5087 98.0204 17.2492 98.0204 17.0088C98.0204 16.7556 98.0204 16.516 98.0204 16.2898C98.0204 16.0623 98.0204 15.8276 98.0204 15.5858C98.0204 15.3455 98.014 15.0795 98.0012 14.788C97.9756 14.0534 97.8618 13.4205 97.6598 12.8893C97.4699 12.3573 97.204 11.92 96.8619 11.5772C96.5206 11.2359 96.1217 10.9891 95.6651 10.837C95.21 10.672 94.7158 10.5895 94.1824 10.5895H94.191ZM103.464 21.7961H110.017C110.302 21.7961 110.444 21.9383 110.444 22.2228V22.5076C110.444 22.7863 110.302 22.9257 110.017 22.9257H102.685C102.406 22.9257 102.267 22.7863 102.267 22.5076V10.0551C102.267 9.77631 102.406 9.63693 102.685 9.63693H103.046C103.324 9.63693 103.464 9.77631 103.464 10.0551V21.7961ZM3.08959 27.1434L1.80957 26.4031L16.0797 1.68799L17.3597 2.42827L3.08959 27.1434Z" fill="currentColor"/><path d="M1.51855 24.4297H30.0588V25.9092H1.51855V24.4297Z" fill="currentColor"/><path d="M16.359 33.5028L2.08252 25.2605L2.8228 23.9805L17.0983 32.2207L16.359 33.5028ZM28.7603 12.0198L14.4849 3.77856L15.2252 2.49854L29.5006 10.7408L28.7603 12.0198Z" fill="currentColor"/><path d="M2.82622 12.0156L2.08594 10.7356L16.3731 2.50293L17.1134 3.78295L2.82622 12.0156Z" fill="currentColor"/><path d="M28.4973 27.1434L14.2261 2.42827L15.5061 1.68799L29.7762 26.4031L28.4973 27.1434ZM2.65039 9.75427H4.12775V26.2388H2.65039V9.75427ZM27.4572 9.75427H28.9367V26.2388H27.4562L27.4572 9.75427Z" fill="currentColor"/><path d="M16.1064 32.877L15.46 31.757L27.8762 24.5889L28.5226 25.7089L16.1064 32.877Z" fill="currentColor"/><path d="M30.897 26.7201C30.4841 27.4344 29.8045 27.9557 29.0075 28.1695C28.2106 28.3833 27.3614 28.2721 26.6463 27.8604C25.932 27.4474 25.4107 26.7678 25.1969 25.9709C24.9831 25.1739 25.0943 24.3247 25.506 23.6096C25.919 22.8953 26.5986 22.374 27.3955 22.1602C28.1925 21.9464 29.0417 22.0576 29.7568 22.4693C31.2544 23.3227 31.7611 25.2427 30.897 26.7201ZM6.07313 12.3838C5.66014 13.0982 4.98058 13.6195 4.18362 13.8332C3.38667 14.047 2.53745 13.9359 1.82238 13.5241C1.10804 13.1111 0.58676 12.4316 0.372972 11.6346C0.159184 10.8377 0.270361 9.98844 0.682098 9.27338C1.09508 8.55904 1.77464 8.03775 2.5716 7.82396C3.36856 7.61018 4.21778 7.72135 4.93284 8.13309C6.42087 8.98644 6.92754 10.9065 6.07419 12.3838M0.691698 26.7201C-0.163784 25.2321 0.343958 23.3344 1.83305 22.4693C3.32108 21.6139 5.21871 22.1216 6.08379 23.6107C6.93928 25.0987 6.43153 26.9964 4.94244 27.8614C3.44481 28.7169 1.54718 28.2092 0.691698 26.7201ZM25.5167 12.3838C24.6612 10.8958 25.1689 8.99817 26.658 8.13309C28.1461 7.27761 30.0437 7.78535 30.9088 9.27444C31.7643 10.7625 31.2565 12.6601 29.7674 13.5252C29.0524 13.9369 28.2031 14.0481 27.4062 13.8343C26.6092 13.6205 25.9297 13.0982 25.5167 12.3838ZM15.7917 35.4466C14.0722 35.4466 12.6823 34.0568 12.6823 32.3373C12.6823 30.6178 14.0754 29.2279 15.7917 29.2279C17.508 29.2279 18.9011 30.6178 18.9011 32.3373C18.8997 33.1615 18.5716 33.9516 17.9888 34.5344C17.406 35.1172 16.6159 35.4452 15.7917 35.4466ZM15.7917 6.772C14.0722 6.772 12.6823 5.38211 12.6823 3.66261C12.6823 1.94311 14.0754 0.553223 15.7917 0.553223C17.508 0.553223 18.9011 1.94311 18.9011 3.66261C18.9018 4.07114 18.8218 4.47579 18.6658 4.85335C18.5098 5.23092 18.2808 5.57397 17.9919 5.86285C17.7031 6.15172 17.36 6.38073 16.9824 6.53674C16.6049 6.69276 16.2002 6.7727 15.7917 6.772Z" fill="currentColor"/></svg>