<svg width="46" height="46" viewBox="0 0 46 46" fill="none" xmlns="http://www.w3.org/2000/svg"><path fill-rule="evenodd" clip-rule="evenodd" d="M13.2843 12.7431C13.5994 16.0609 13.9121 19.3599 14.2319 22.733C14.7534 21.8364 15.1307 20.9764 15.7 20.272C16.2301 19.6158 16.8981 19.0103 17.6252 18.5909C18.5743 18.0432 19.8188 18.5589 20.1264 19.5303C20.2091 19.7908 20.0118 20.1401 19.9428 20.4488C19.7106 20.3263 19.4113 20.2587 19.2596 20.0711C18.6152 19.2744 18.2271 19.1803 17.5145 19.8688C16.1851 21.1539 15.4376 22.7639 15.1523 24.5734C15.0973 24.9234 15.3162 25.3162 15.4085 25.6893C15.7719 25.5642 16.1938 25.5182 16.4874 25.2997C17.4419 24.5892 18.0334 23.6228 18.3597 22.4678C18.4305 22.2177 18.8143 22.0563 19.0544 21.854C19.1694 22.0905 19.4317 22.369 19.3768 22.5562C18.8684 24.2955 18.3249 26.0243 17.7466 27.7416C17.6884 27.9156 17.3689 28.0022 17.1702 28.1294C17.0901 27.9008 16.9215 27.6615 16.9485 27.4462C17.0088 26.9582 17.1659 26.482 17.2755 26.035L14.6736 27.2328C14.8192 28.8938 14.9701 30.7572 15.1491 32.618C15.2864 34.039 15.5189 34.407 16.9183 34.6765C18.5513 34.991 20.2148 35.1918 21.8748 35.314C24.3194 35.4982 26.7776 35.2668 29.1449 34.6298C30.0333 34.3912 30.3876 33.8068 30.4513 32.9346C30.5095 32.1314 30.6396 31.3332 30.7298 30.5322C30.9069 28.9542 31.0791 27.3758 31.2602 25.7317C30.6611 26.1112 30.19 26.5359 29.6391 26.716C29.238 26.8472 28.732 26.6553 28.2724 26.6071C28.3604 26.1852 28.355 25.7097 28.5584 25.354C28.8898 24.7725 29.3577 24.2683 29.7674 23.7314L29.5909 23.519C29.2973 23.6926 28.9325 23.8065 28.7237 24.0527C28.299 24.5536 27.8832 25.0898 27.5989 25.677C27.1231 26.6599 26.7605 27.6974 26.3346 28.7051C26.1495 29.1421 25.99 29.8106 25.3701 29.5554C24.707 29.2819 25.1735 28.6979 25.3291 28.2825C25.5767 27.6198 25.9037 26.9866 26.1251 26.4993C25.4976 26.574 24.8615 26.6642 24.2226 26.7199C23.9523 26.7429 23.631 26.5949 23.41 26.6948C22.6751 27.0268 22.2094 26.8935 22.0566 26.0799C21.7163 26.3009 21.4281 26.6003 21.0885 26.6808C20.6763 26.7789 20.1171 26.8432 19.8152 26.6373C19.5733 26.4723 19.4853 25.8524 19.5679 25.4887C19.7322 24.7657 20.0391 24.0706 20.3305 23.3831C20.5109 22.9573 20.6924 22.2773 21.3012 22.5735C21.9028 22.8656 21.3566 23.3587 21.2178 23.7544C21.0026 24.366 20.7834 24.9766 20.5663 25.5875L20.9113 25.796C21.2398 25.5106 21.6491 25.2781 21.8791 24.9281C22.2557 24.356 22.4832 23.6875 22.8397 23.1003C22.9874 22.857 23.3054 22.7176 23.5466 22.5311C23.5955 22.8408 23.7126 23.1593 23.6738 23.4583C23.6354 23.7605 23.423 24.0368 23.3213 24.3358C23.1685 24.7836 23.0453 25.2415 22.89 25.7622C23.6242 25.7902 23.9387 25.4812 24.146 24.936C24.8022 23.2135 25.4656 21.4928 26.1869 19.7969C26.3102 19.5066 26.7292 19.3427 27.012 19.1199C27.0447 19.4699 27.2007 19.8667 27.0897 20.1617C26.4985 21.7246 25.8347 23.2595 25.2109 24.8102C25.1056 25.0715 25.0718 25.3615 25.0053 25.6382C26.1046 25.1441 27.0221 24.5978 27.357 23.4295C27.439 23.1456 27.7746 22.9346 27.9935 22.6899L28.5024 23.229C28.6569 23.0989 28.7985 22.9508 28.9663 22.8426C29.4946 22.5023 30.0635 22.2022 30.6205 22.7294C31.197 23.2746 30.7607 23.8058 30.4595 24.2773C30.1318 24.7915 29.7304 25.2584 29.3609 25.7457C30.1918 25.2102 31.3263 24.9701 31.4773 23.813C31.8453 20.9865 32.1687 18.1542 32.4968 15.3227C32.5942 14.4847 32.6463 13.6412 32.7221 12.7679C26.1779 14.3524 19.7742 14.3621 13.2843 12.7431ZM16.0931 34.7976C16.4083 35.6303 16.887 36.4482 17.0124 37.3172C17.2773 39.1669 17.3445 41.0446 17.5321 42.9069C17.5594 43.1782 17.7351 43.5509 17.9544 43.6702C21.1815 45.424 24.44 45.728 27.7326 43.81C28.2239 43.524 28.3148 43.1463 28.3784 42.6151C28.6864 40.0344 28.0007 37.2971 29.6506 34.867C25.0304 36.013 20.5214 36.0486 16.0931 34.7976ZM27.2305 13.2064C28.7981 13.0551 30.3467 12.6871 31.897 12.383C32.1892 12.3259 32.4487 12.1034 32.7232 11.9572C32.3613 11.6391 32.0483 11.486 31.7213 11.4476C30.0933 11.2553 28.4596 11.1073 26.8327 10.9056C26.5869 10.8751 26.1481 10.5718 26.1664 10.5164C26.6412 9.08613 26.6178 7.46714 27.6952 6.2618C29.0569 4.73805 30.4326 3.22759 31.7978 1.71642C30.7822 0.623923 30.7686 0.622485 29.8482 1.57878C29.3279 2.11928 28.8524 2.71081 28.2878 3.20028C26.1988 5.01081 24.7314 7.1552 24.4454 9.98241C24.3796 10.6311 24.0235 10.8654 23.3425 10.8755C21.0942 10.9082 18.8434 10.97 16.6002 11.1177C15.4887 11.1906 14.3908 11.476 13.2864 11.665L13.2764 12.0779C13.9674 12.291 14.6452 12.571 15.351 12.7065C19.284 13.4604 23.2541 13.5898 27.2305 13.2064ZM25.9742 12.2188C25.084 12.9375 24.3484 12.9375 23.6379 12.2188H25.9742Z" fill="currentColor"/></svg>