<svg width="140" height="32" viewBox="0 0 140 32" fill="none" xmlns="http://www.w3.org/2000/svg"><path d="M59.8618 12.5431V12.5417L58.9664 15.7188L59.8625 12.5445L59.8618 12.5431ZM64.4722 19.4394L63.4855 19.4408L64.4729 19.4464L64.4722 19.4394ZM64.2179 24.1812H64.2194L58.302 24.2022L64.2179 24.1812Z" fill="currentColor"/><path d="M86.1928 5.27051H82.0874C81.9711 5.27497 81.8594 5.31681 81.7688 5.38981C81.6782 5.46281 81.6136 5.56307 81.5845 5.67572L78.6701 19.1629C78.6409 19.2753 78.5764 19.3753 78.4859 19.4481C78.3955 19.521 78.284 19.5628 78.168 19.5674H75.262C72.3869 19.5674 72.7197 17.5799 73.3083 14.8621L73.3258 14.78L73.6741 12.9239L73.8244 12.1605L75.1503 5.68555C75.196 5.46223 75.0464 5.27823 74.8188 5.27823H70.6052C70.3777 5.27823 70.1515 5.46082 70.1052 5.68415L68.2076 14.6873C67.1641 19.4522 67.4408 23.9959 73.113 24.1385L73.2774 24.142H82.1808C82.4083 24.142 82.6344 23.9594 82.6815 23.7361L86.5201 5.67642C86.5672 5.4531 86.4197 5.27051 86.1914 5.27051H86.1928ZM102.571 19.6151C102.622 19.6121 102.673 19.6212 102.72 19.6417C102.767 19.6622 102.808 19.6936 102.841 19.7333C102.873 19.7729 102.896 19.8197 102.906 19.8697C102.917 19.9197 102.916 19.9716 102.903 20.021L102.504 21.9691M102.106 23.9187L102.504 21.9691L102.105 23.9194L102.106 23.9187ZM101.606 24.3288L94.04 24.3653L101.606 24.3288H101.606Z" fill="currentColor"/><path d="M91.5906 17.1053C91.5871 16.8918 91.8294 16.5245 92.0583 16.5245L91.5456 16.5161C91.3139 18.8336 91.5906 17.1053 91.5906 17.1053ZM102.571 19.6152C102.622 19.6122 102.673 19.6213 102.72 19.6418C102.767 19.6624 102.809 19.6937 102.841 19.7334C102.873 19.773 102.896 19.8198 102.907 19.8698C102.917 19.9198 102.916 19.9717 102.903 20.0212L102.439 22.2874" fill="currentColor"/><path d="M102.1 23.9195L102.434 22.2867L102.099 23.9202L102.1 23.9195ZM34.5869 17.1545L35.2246 14.3271L34.4956 17.559L33.7962 20.8505L34.4093 17.9712L34.5869 17.1608V17.1545ZM42.2192 5.21582H37.7107C37.5943 5.22056 37.4825 5.26227 37.3914 5.33488C37.3004 5.40749 37.2348 5.50724 37.2043 5.61963L36.3489 9.39434C36.3348 9.44303 36.3325 9.49442 36.3424 9.54417C36.3522 9.59391 36.3739 9.64056 36.4056 9.68016C36.4373 9.71976 36.478 9.75115 36.5244 9.77169C36.5707 9.79223 36.6214 9.8013 36.672 9.79815H41.2157C41.332 9.79387 41.4438 9.7522 41.5345 9.67933C41.6252 9.60646 41.69 9.50627 41.7192 9.39364L42.5458 5.62033C42.595 5.39771 42.4475 5.21582 42.2199 5.21582H42.2192ZM28.1401 31.7716L31.8579 31.8011C30.7603 31.8011 28.9477 31.78 28.1387 31.7709L28.1401 31.7716Z" fill="currentColor"/><path d="M40.9116 11.0954H36.3679C36.2516 11.1004 36.1399 11.1422 36.049 11.215C35.958 11.2877 35.8927 11.3875 35.8623 11.4999L34.5863 17.1532L34.4086 17.9637L33.1824 23.7349C33.1224 24.0044 33.0495 24.2709 32.964 24.5334C32.964 24.5334 32.1213 27.0595 30.6887 27.0307L29.2743 27.0047C29.1582 27.0072 29.046 27.047 28.9544 27.1182C28.8627 27.1894 28.7963 27.2883 28.7651 27.4001L27.8241 31.3609C27.8093 31.4093 27.8064 31.4606 27.8155 31.5104C27.8247 31.5602 27.8456 31.607 27.8767 31.647C27.9077 31.687 27.9479 31.719 27.9939 31.7402C28.0399 31.7614 28.0902 31.7713 28.1408 31.7689L31.8601 31.7991C35.4248 31.7991 37.3041 29.8236 38.5092 24.1401L41.248 11.4992C41.2958 11.2766 41.1497 11.0947 40.9208 11.0947L40.9116 11.0954ZM105.467 24.1345C105.24 24.1345 105.092 23.9519 105.139 23.7286L108.558 7.7168" fill="currentColor"/><path d="M105.189 23.9384C105.161 23.826 105.178 23.5535 105.226 23.3302L106.842 15.7295L105.132 23.7354C105.085 23.9587 105.232 24.1413 105.46 24.1413H105.882C105.653 24.1413 105.216 24.05 105.188 23.9306L105.189 23.9384Z" fill="currentColor"/><path d="M109.948 24.0428C109.824 24.0934 109.536 24.1341 109.307 24.1341H109.729C109.956 24.1341 110.18 23.9515 110.225 23.7268L110.307 23.3209C110.262 23.5442 110.078 23.9922 109.954 24.0421L109.948 24.0428Z" fill="currentColor"/><path d="M124.399 8.78885L124.587 9.56697C124.639 9.78959 124.495 9.97007 124.267 9.97077M111.52 17.287L111.688 16.4808L112.34 13.4274L111.602 16.8861L111.521 17.2863L111.52 17.287ZM108.614 7.45312L106.856 15.7217L108.622 7.45312H108.614Z" fill="currentColor"/><path d="M124.586 9.56705L124.398 8.78893L124.117 7.59507C123.748 6.16103 122.663 5.33375 120.311 5.33375L113.274 5.32532H109.478C109.251 5.32532 109.024 5.50791 108.978 5.73053L108.809 6.5241L108.557 7.72288L105.225 23.3302C105.176 23.5535 105.16 23.8267 105.188 23.9384C105.215 24.05 105.653 24.149 105.881 24.149H109.305C109.534 24.149 109.822 24.1069 109.946 24.0577C110.069 24.0086 110.255 23.5662 110.299 23.3365L111.6 16.9086L112.99 10.395C113.019 10.2831 113.084 10.1835 113.174 10.1108C113.264 10.0381 113.375 9.99619 113.49 9.99122L124.265 9.98631C124.493 9.9856 124.637 9.80512 124.585 9.5825L124.586 9.56705ZM138.456 2.53028L137.627 2.53309H134.186C134.06 2.54047 133.936 2.57488 133.824 2.634C133.713 2.69312 133.615 2.77558 133.537 2.87579L125.911 14.0419C125.781 14.2315 125.635 14.2035 125.584 13.9808L125.022 11.5194C124.992 11.4069 124.926 11.307 124.835 11.2344C124.744 11.1618 124.632 11.1202 124.515 11.1156H119.613C119.564 11.1114 119.514 11.1199 119.468 11.1402C119.423 11.1605 119.383 11.192 119.353 11.2318C119.323 11.2715 119.304 11.3182 119.297 11.3676C119.29 11.4169 119.295 11.4672 119.313 11.5137L121.509 19.2093C121.573 19.472 121.576 19.7455 121.521 20.0098L120.563 23.7347C120.507 23.9559 120.647 24.1371 120.875 24.1371H125.72C125.948 24.1371 126.181 23.9566 126.238 23.7347L127.196 20.0098C127.272 19.7477 127.391 19.5 127.548 19.2767L139.929 2.84489C140.067 2.6623 140 2.51483 139.764 2.51623L138.465 2.52466L138.456 2.53028ZM99.5079 12.1697C99.4798 12.4127 99.2509 12.5938 99.0163 12.5938H92.8012C92.5863 12.5938 92.4781 12.4478 92.509 12.2673C92.5111 12.2624 92.5118 12.2575 92.5146 12.2532C92.5118 12.2483 92.5118 12.2413 92.514 12.2343L92.542 12.1289C93.1355 10.5509 94.3448 9.51438 96.6173 9.51438C99.1757 9.51438 99.675 10.7644 99.5016 12.169L99.5079 12.1697ZM97.6848 4.99525C89.707 4.99525 87.8157 9.83813 86.7553 14.7259C85.7019 19.7079 85.7862 24.366 94.0421 24.366H94.3349L94.4136 24.3653H95.0428L95.3497 24.3646L96.3568 24.3611L101.61 24.3288C101.725 24.3226 101.835 24.2797 101.924 24.2065C102.013 24.1332 102.077 24.0333 102.105 23.9215L102.903 20.0211C102.916 19.9716 102.917 19.9198 102.906 19.8697C102.896 19.8197 102.873 19.7729 102.841 19.7333C102.808 19.6937 102.767 19.6623 102.72 19.6417C102.673 19.6212 102.622 19.6121 102.571 19.6152H95.1482C92.1965 19.6152 91.3194 18.8307 91.6424 16.5252H103.507C103.602 16.522 103.694 16.4914 103.772 16.437C103.85 16.3827 103.91 16.307 103.946 16.219C103.96 16.1857 103.97 16.1507 103.975 16.115C105.736 9.47154 105.23 4.99596 97.6827 4.99596L97.6848 4.99525ZM59.9741 12.1374L59.8618 12.5349C59.8618 12.5363 58.9657 15.7112 58.9657 15.7112L58.078 18.8932C58.0408 19.0053 57.9705 19.1035 57.8763 19.1747C57.7822 19.2459 57.6686 19.2869 57.5506 19.2921H52.8089C49.2118 19.2921 48.3354 16.4788 49.2118 12.3298C50.0875 8.08596 51.8046 5.44752 55.3448 5.18065C60.1904 4.81547 61.1505 8.21868 59.9819 12.1458L59.9741 12.1374ZM63.2257 19.0407C63.2257 19.0407 65.461 13.6121 65.9687 10.4765C66.6626 6.28603 64.5614 0.19873 56.4438 0.19873C48.3726 0.19873 44.8753 6.01074 43.5311 12.3284C42.194 18.691 43.9525 24.2726 51.971 24.227L64.2187 24.182C64.3361 24.1759 64.4488 24.134 64.5417 24.062C64.6346 23.9899 64.7032 23.8912 64.7384 23.7789L65.7693 19.8476C65.8269 19.6271 65.6871 19.4452 65.4603 19.4445L63.4848 19.4326C63.291 19.4312 63.18 19.3062 63.2039 19.1397C63.2079 19.1079 63.2159 19.0768 63.2278 19.047L63.2257 19.0407Z" fill="currentColor"/><path d="M103.181 15.4139C103.181 15.5642 103.059 15.6864 102.908 15.6864C102.836 15.686 102.767 15.6572 102.716 15.6061C102.665 15.5551 102.636 15.486 102.636 15.4139C102.636 15.2636 102.758 15.1421 102.908 15.1421C103.059 15.1421 103.181 15.2636 103.181 15.4139Z" fill="currentColor"/><path d="M1.5983 8.35589C-0.630007 11.5583 -0.352609 15.7262 1.3497 19.1288L1.56038 19.5241C1.57583 19.5543 1.59339 19.5838 1.60954 19.6119C1.63763 19.666 1.66853 19.7173 1.69803 19.7706L1.85955 20.0494L1.95225 20.2018L2.22192 20.6211C2.31072 20.754 2.40179 20.8853 2.49511 21.0151L2.54918 21.0874C2.63051 21.199 2.71362 21.3092 2.79849 21.4182L2.89189 21.5375L3.12224 21.8199L3.21002 21.9252C3.31475 22.0489 3.42151 22.1709 3.53026 22.2911C3.54149 22.303 3.5443 22.3051 3.54922 22.3122C3.65615 22.4282 3.76478 22.5427 3.87507 22.6556L3.98041 22.7609L4.24026 23.0158L4.347 23.117C4.46428 23.2272 4.58296 23.3276 4.70305 23.4414C4.72904 23.4646 4.7501 23.4814 4.77047 23.499L5.09352 23.7799L5.23397 23.8867L5.50364 24.0973L5.64761 24.2069L5.94959 24.4176L6.05984 24.4962C6.07038 24.5032 6.07951 24.5103 6.09004 24.5173C6.18696 24.584 6.28527 24.6479 6.385 24.7118L6.51141 24.7961C6.66341 24.8927 6.81699 24.9868 6.9721 25.0784L7.09851 25.15L7.44402 25.3439C7.51425 25.3776 7.57184 25.4099 7.63504 25.4422L7.88224 25.5707L7.93842 25.5988L8.03955 25.648L8.43142 25.8291L8.51429 25.8664C8.66555 25.9322 8.81797 25.9955 8.97147 26.056L9.08243 26.0995L9.51362 26.2596L9.5677 26.2786C9.72707 26.334 9.88745 26.3864 10.0488 26.4359L10.1646 26.471C10.329 26.5202 10.4919 26.5799 10.6611 26.6115C21.4382 28.5778 24.5689 20.1351 24.5689 20.1351C21.9396 23.5608 17.2653 24.4639 12.8508 23.4583C12.6837 23.4203 12.5208 23.3684 12.3571 23.3199L12.2342 23.2827C12.0749 23.2337 11.9164 23.1822 11.7588 23.1282L11.6935 23.105C11.553 23.0554 11.4132 23.0036 11.2742 22.9498L11.1569 22.9035C11.0045 22.8431 10.8536 22.7806 10.7047 22.7153L10.6134 22.6752L10.232 22.4976L10.1218 22.4449L9.82684 22.2946L9.6302 22.1914C9.51081 22.1211 9.39353 22.0607 9.27625 21.9933L9.15687 21.9266C9.00183 21.8349 8.84825 21.7408 8.69618 21.6443C8.65404 21.6176 8.61331 21.5881 8.57187 21.5614L8.24391 21.3507L8.13857 21.2763L7.82957 21.0516L7.41242 20.737L7.28742 20.6372L6.93909 20.3437C6.92715 20.3332 6.91381 20.3226 6.90117 20.3114C6.77746 20.2026 6.65571 20.0916 6.53598 19.9785L6.43275 19.8802L6.1694 19.6225L6.06616 19.5192L5.74312 19.1779C5.73792 19.1721 5.73253 19.1665 5.72697 19.1611C5.61554 19.0388 5.50643 18.9145 5.39971 18.7882L5.31403 18.6863L5.07807 18.3949L4.99169 18.2874L4.7192 17.9251C2.26406 14.5766 1.382 9.95777 3.34416 6.1648M8.52904 5.6718C6.91732 7.99071 7.0051 11.0955 8.26217 13.5485C8.47267 13.9607 8.71082 14.3581 8.97498 14.7381C9.21656 15.0844 9.48413 15.4966 9.80366 15.774C9.9206 15.9024 10.0412 16.0275 10.1653 16.149C10.1966 16.1809 10.2285 16.2123 10.2608 16.2431L10.6302 16.5943C10.6352 16.5985 10.6401 16.6034 10.6443 16.6083C10.7882 16.7347 10.9252 16.8527 11.0797 16.9686L11.178 17.0388C11.3256 17.1525 11.4762 17.2624 11.6296 17.3682C11.6345 17.3717 11.638 17.3752 11.6436 17.378C11.7117 17.425 11.7806 17.4693 11.8494 17.5135C11.8824 17.5346 11.914 17.5578 11.9477 17.5781C12.058 17.6484 12.1689 17.7172 12.282 17.7832L12.329 17.8113L12.624 17.9763C12.6591 17.996 12.6942 18.0128 12.7293 18.0311L12.9365 18.1378C12.947 18.1428 12.9576 18.1477 12.9681 18.1519C13.1103 18.2221 13.2541 18.289 13.3993 18.3527C13.4309 18.3668 13.4695 18.3787 13.4948 18.3921L13.8488 18.5353L14.0004 18.5915C14.1079 18.6315 14.216 18.6617 14.3249 18.7039L14.4653 18.7509C14.6198 18.8001 14.7743 18.8598 14.9359 18.8865C23.2578 20.265 25.1778 13.8582 25.1778 13.8582C23.446 16.3527 20.0934 17.5423 16.5139 16.6132C16.3557 16.5716 16.1986 16.5261 16.0427 16.477C15.9949 16.4629 15.9485 16.4468 15.9008 16.4313C15.7903 16.3954 15.6805 16.3575 15.5714 16.3176L15.4225 16.2614C15.3035 16.2158 15.1852 16.168 15.0679 16.1181L14.9583 16.0704C14.8121 16.0067 14.6674 15.9395 14.5243 15.8688C14.4506 15.8337 14.379 15.7951 14.3137 15.7578L14.1872 15.6932C14.0947 15.6429 14.0029 15.5912 13.912 15.538L13.8459 15.5008C13.7336 15.4348 13.6226 15.3604 13.5124 15.2901C13.4787 15.2691 13.4456 15.2452 13.4119 15.2227L13.2027 15.0872C13.0496 14.9818 12.9007 14.8765 12.7532 14.7585L12.6521 14.6792C11.086 13.4432 9.84299 11.7521 9.25308 9.83628C8.63508 7.84885 8.76149 5.61773 9.83948 3.80727M14.334 3.64223C13.3838 5.04678 13.2904 6.77648 13.9499 8.32078C14.6522 9.95988 16.0693 11.2457 17.7323 11.8553L17.9388 11.9269L18.0301 11.955L18.3264 12.0407C22.9214 12.9284 24.1672 9.68319 24.5064 9.20564C23.4144 10.7773 21.5801 11.1544 19.3293 10.6081C19.145 10.561 18.9631 10.505 18.7843 10.4402C18.5642 10.362 18.3483 10.2722 18.1375 10.1713C17.7372 9.97954 17.3566 9.74639 17.0034 9.47953C14.9892 7.95138 13.7378 5.03554 15.0524 2.66748" fill="currentColor"/></svg>