<svg width="105" height="42" viewBox="0 0 105 42" fill="none" xmlns="http://www.w3.org/2000/svg"><path d="M9.69276 1.00684L10.7555 3.02267C10.9869 3.38629 11.2562 3.72387 11.5589 4.0296C12.4491 4.92739 13.2964 5.86844 14.0549 6.87635C15.8567 9.2629 17.0725 11.913 17.9413 14.7824C18.4619 16.5347 18.7447 18.3302 18.7661 20.1474C18.8539 25.5784 17.0072 30.2423 13.273 34.1186C12.6679 34.7331 12.0145 35.2971 11.3191 35.805C10.9486 35.805 10.776 35.51 10.6239 35.2573C10.3314 34.7657 10.1676 34.2278 10.0808 33.681C9.95016 33.0242 9.86339 32.3673 9.90726 31.6878V31.381C9.88581 31.3151 9.56016 1.16122 9.68984 1.00782L9.69276 1.00684Z" fill="currentColor"/><path d="M9.69282 0.941961C9.64895 0.853461 9.60507 0.920328 9.56217 0.963595C9.58362 1.40118 9.43152 1.79549 9.19167 2.16818C8.93135 2.54184 8.58327 2.82504 8.23617 3.13184C6.30372 4.81826 4.78467 6.85474 3.56787 9.13214C1.96107 12.1982 1.11477 15.4825 0.876871 18.9429C0.769621 20.1917 1.26687 24.5931 1.65882 25.8626C2.72157 29.2354 4.63257 32.0595 7.11882 34.512C7.72722 35.102 8.37852 35.6507 9.05127 36.1758C9.24627 36.1758 9.2687 36.0007 9.3116 35.869C9.39715 35.5893 9.46232 35.3037 9.5066 35.0145C9.7016 33.92 9.81079 32.8246 9.94047 31.7301L9.7016 0.941961H9.69282Z" fill="currentColor"/><path d="M10.7585 37.1406C10.8024 36.6371 11.051 36.2212 11.3016 35.8052C11.0412 35.6971 10.8453 35.4768 10.6932 35.2349C10.5625 35.0156 10.4543 34.7432 10.3675 34.5122C10.0633 33.5927 9.99701 32.6291 9.91121 31.687V31.1167C9.80396 31.2052 9.78056 31.9486 9.78056 32.0587C9.71523 33.0657 9.58556 34.0519 9.39056 35.0146C9.32523 35.408 9.28331 35.8033 9.04346 36.1533C9.04346 36.1976 9.04346 36.2418 9.06491 36.3067C9.45491 37.4671 9.56411 38.65 9.63041 39.8546V40.2922C9.63041 40.8173 9.60896 40.7081 10.0428 40.8822C10.2164 40.9481 10.4133 40.9707 10.5859 41.1015C10.7166 41.1015 10.738 40.9933 10.738 40.9048L10.6727 40.1821V38.1662C10.6512 37.8162 10.7166 37.4651 10.7604 37.1367L10.7585 37.1406Z" fill="currentColor"/><path d="M27.2464 27.9821V30.0676C27.2441 30.1502 27.2487 30.2328 27.2603 30.3146C27.2872 30.5616 27.4376 30.7122 27.6586 30.7815C27.8648 30.8363 28.0743 30.8775 28.2858 30.905C28.4083 30.9191 28.4491 30.9733 28.463 31.1059C28.477 31.5728 28.4361 31.628 27.9871 31.5999C26.9398 31.5447 25.8914 31.5316 24.844 31.5999H24.7445C24.4179 31.6139 24.391 31.5858 24.391 31.2565C24.391 31.2012 24.405 31.133 24.405 31.0777C24.405 30.9773 24.4727 30.9271 24.5682 30.9271C24.7873 30.9 24.9904 30.8448 25.1955 30.8036C25.4812 30.7353 25.6435 30.5566 25.6714 30.2684C25.7112 29.9531 25.7112 29.6238 25.7112 29.3075L25.7251 25.6305C25.7296 25.5238 25.7039 25.4181 25.651 25.3256C25.5981 25.2332 25.5202 25.1578 25.4264 25.1083C25.1802 24.9704 24.9198 24.86 24.6499 24.779C24.5682 24.7519 24.4866 24.7388 24.4189 24.6967C24.2198 24.6003 24.2148 24.4225 24.405 24.3121C24.4727 24.2719 24.5543 24.2438 24.6359 24.2297C25.4616 24.1068 26.2729 23.8999 27.0572 23.6122C27.2205 23.557 27.2613 23.5721 27.2763 23.7357C27.2902 23.8361 27.2763 23.9566 27.2623 24.051C27.2354 24.2297 27.2354 24.4075 27.2354 24.5732C27.2354 24.6414 27.2494 24.7107 27.3171 24.7519C27.3848 24.793 27.4535 24.7519 27.5162 24.7117C27.8019 24.4908 28.0877 24.286 28.4003 24.1093C28.8483 23.8622 29.3262 23.6423 29.8439 23.5741C30.4711 23.4917 31.0137 23.6564 31.4906 24.0681C31.6878 24.2461 31.8615 24.4489 32.0073 24.6716C32.1437 24.8724 32.1567 24.8774 32.3339 24.7398C32.8516 24.3553 33.3952 24.0129 33.9806 23.7658C34.5929 23.5048 35.2191 23.4646 35.8444 23.6835C36.4835 23.9165 36.9196 24.3693 37.1785 24.9868C37.3975 25.4809 37.4911 25.9909 37.4911 26.5231V30.2002C37.4911 30.4472 37.5906 30.6018 37.8316 30.7223C38.0904 30.8227 38.3762 30.8729 38.648 30.9281C38.8252 30.9683 38.8252 30.9683 38.8252 31.149C38.7983 31.6009 38.7575 31.629 38.3214 31.6009C37.2294 31.5392 36.1349 31.5392 35.0429 31.6009C34.8239 31.6149 34.8239 31.6149 34.8119 31.395V31.3268C34.798 30.9552 34.798 30.9552 35.1524 30.8749L35.5059 30.7785C35.6256 30.7501 35.7324 30.6818 35.8089 30.5848C35.8855 30.4877 35.9275 30.3674 35.928 30.2433L35.9678 29.2141L35.9409 26.5251C35.9305 26.285 35.88 26.0484 35.7916 25.8253C35.4511 24.9878 34.7034 24.6866 33.9816 24.769C33.437 24.8242 32.9611 25.0431 32.5121 25.3594C32.4165 25.4276 32.3488 25.51 32.3628 25.6475C32.4852 26.5261 32.4026 27.4047 32.4175 28.2823V30.1901C32.4175 30.5335 32.5539 30.6982 32.8805 30.7805L33.5077 30.9181C33.6033 30.9321 33.657 30.9733 33.657 31.0828V31.1832C33.6431 31.5677 33.6172 31.5848 33.2349 31.5808C32.1467 31.5256 31.0575 31.5406 29.9833 31.5808C29.6149 31.5949 29.5851 31.5537 29.602 31.1792C29.6159 30.9583 29.6418 30.9462 29.8469 30.905L30.2949 30.8227C30.6931 30.7404 30.8395 30.5897 30.8664 30.164L30.9062 29.2442L30.8793 26.486C30.8524 26.1426 30.7798 25.8132 30.5936 25.4979C30.3218 24.9899 29.8967 24.7298 29.3142 24.7017C28.7288 24.6615 28.2121 24.8804 27.7213 25.1535C27.3808 25.3543 27.2315 25.5923 27.2583 25.9909V27.9941L27.2464 27.9821ZM52.88 28.0654V30.0003C52.8822 30.1379 52.8912 30.2753 52.9069 30.412C52.9127 30.5031 52.9477 30.5899 53.0066 30.6592C53.0655 30.7286 53.1451 30.7768 53.2334 30.7966C53.4682 30.8656 53.7101 30.9071 53.9543 30.9201C54.0906 30.9342 54.1175 30.9884 54.1315 31.0988V31.1952C54.1175 31.6752 54.0638 31.7304 53.6008 31.7033C52.5654 31.635 51.533 31.6481 50.4985 31.7033L50.1003 31.7174C50.0187 31.7174 50.0007 31.6772 49.9778 31.621C49.9381 31.4309 49.9381 31.2346 49.9778 31.0446C49.9918 30.9623 50.0455 30.9442 50.1272 30.9211C50.3263 30.894 50.4956 30.8528 50.6847 30.8207C51.0252 30.7384 51.1477 30.5998 51.1606 30.2443L51.2004 29.0916V25.7158C51.2004 25.4688 51.1049 25.3182 50.8878 25.2077C50.6429 25.0702 50.384 24.9748 50.1113 24.8784C50.0296 24.8513 49.948 24.8232 49.8803 24.782C49.7031 24.6585 49.6812 24.4808 49.8534 24.3432C49.9306 24.2792 50.0255 24.2406 50.1252 24.2328C50.9963 24.0952 51.8396 23.9034 52.656 23.5741C52.7516 23.5339 52.7924 23.56 52.8332 23.6423C52.874 23.7247 52.888 23.8211 52.873 23.9165L52.8332 24.5611C52.8332 24.6434 52.7934 24.7619 52.8601 24.7941C52.9417 24.8493 52.9965 24.7258 53.0642 24.6936C53.4659 24.3538 53.9097 24.0679 54.3843 23.8432C54.8065 23.6423 55.2406 23.5138 55.7314 23.5419C56.6434 23.5972 57.2965 24.0641 57.7176 24.8734C57.9366 25.2991 58.0302 25.765 58.071 26.246L58.1109 27.2501L58.1248 30.2825C58.1387 30.5154 58.2204 30.6671 58.4514 30.7494C58.6908 30.8299 58.9366 30.8897 59.1861 30.9281C59.4051 30.9552 59.4171 30.9964 59.431 31.2023V31.2705C59.4041 31.7374 59.3763 31.7505 58.9133 31.7224C57.8982 31.6675 56.8809 31.6675 55.8658 31.7224C55.7294 31.7364 55.594 31.7224 55.4676 31.7364C55.3859 31.7364 55.3312 31.7224 55.3182 31.64C55.2913 31.4613 55.2635 31.2836 55.3043 31.0908C55.3182 31.0085 55.359 30.9673 55.4536 30.9532L56.0808 30.8528C56.2999 30.7976 56.4213 30.652 56.4492 30.4512L56.4761 30.0666L56.4622 27.1989C56.4622 26.8695 56.4482 26.5402 56.3805 26.2108C56.2172 25.508 55.6866 25.0059 54.9668 24.9356C54.3395 24.8674 53.7721 25.032 53.2524 25.3744C52.9935 25.5391 52.884 25.7721 52.884 26.0602V28.1327C52.884 28.0925 52.884 28.0925 52.8979 28.0925L52.88 28.0654Z" fill="currentColor"/><path d="M92.7296 24.1817C92.5803 23.1796 92.2119 22.2879 91.5727 21.5057C91.0158 20.8147 90.295 20.2766 89.477 19.9413C88.6208 19.5849 87.7078 19.4744 86.7829 19.4473C86.4016 19.4333 81.2046 19.5156 80.8233 19.4473C80.7277 19.4333 80.66 19.4614 80.6043 19.5437C80.5366 19.6441 80.4679 19.7495 80.4271 19.859C80.2638 20.2305 80.2638 20.2024 80.658 20.2566C80.9846 20.3118 81.2972 20.339 81.6108 20.4353C81.8965 20.5317 82.1006 20.6964 82.1683 21.0117C82.1952 21.1623 82.2231 25.9921 82.2231 28.2433L82.1683 29.8498C82.1544 29.9733 82.1415 30.0969 82.1006 30.2063C82.0459 30.371 81.9513 30.5075 81.788 30.5778C81.6084 30.6631 81.4146 30.7141 81.2166 30.7284C80.8482 30.7686 80.7944 30.7837 80.672 31.1953L80.6321 31.346C80.6053 31.5247 80.6182 31.5518 80.7954 31.5518L84.8634 31.592L86.4564 31.5648L87.5585 31.4273C88.81 31.1943 89.926 30.6722 90.8778 29.8358C91.4215 29.3515 91.8654 28.764 92.184 28.1067C92.5654 27.3386 92.7286 26.5001 92.7695 25.6507C92.8372 25.1707 92.8093 24.6767 92.7296 24.1827V24.1817ZM90.7564 26.1296C90.7016 27.0082 90.5254 27.8587 90.0764 28.6268C89.5049 29.6289 88.6885 30.3288 87.5595 30.5748C87.0697 30.6752 86.5798 30.7254 86.0661 30.6571C85.6977 30.617 85.3453 30.5748 85.0048 30.4513C84.3925 30.2304 84.1745 29.8488 84.1615 29.2464L84.1476 20.9725C84.1476 20.4785 84.3666 20.3701 84.7191 20.355C85.2497 20.3149 85.7943 20.3279 86.325 20.3821C86.8899 20.4372 87.4442 20.5724 87.9717 20.7838C88.3635 20.9485 88.7265 21.1756 89.0469 21.4565C89.7817 22.0891 90.2715 22.8824 90.5403 23.8162C90.7593 24.5713 90.7992 25.3394 90.7593 26.1075L90.7564 26.1296ZM104.038 27.4751C104.038 27.3928 104.038 27.3245 104.024 27.2422C103.901 26.4871 103.506 25.9107 102.895 25.4719C102.5 25.1838 102.051 24.992 101.588 24.8544C101.507 24.8273 101.439 24.7992 101.357 24.7861C101.371 24.7179 101.412 24.7038 101.453 24.6897C101.725 24.5522 101.984 24.4016 102.215 24.1957C102.637 23.8393 102.912 23.3995 103.058 22.8643C103.14 22.5761 103.14 22.2879 103.113 21.9857C103.091 21.6321 102.99 21.2881 102.818 20.9793C102.646 20.6704 102.407 20.4045 102.119 20.2014C101.492 19.7345 100.758 19.5427 99.9965 19.5286C98.527 19.5015 97.0445 19.5286 95.576 19.5286C95.1539 19.5286 94.7328 19.5558 94.2967 19.4885C94.2151 19.4744 94.0976 19.4483 94.0378 19.5437C93.9383 19.7224 93.8188 19.9002 93.779 20.106C93.765 20.2024 93.7929 20.2566 93.9014 20.2707L94.8403 20.4082C95.2087 20.4635 95.4675 20.6693 95.4934 20.9987C95.5201 21.2263 95.5334 21.4553 95.5332 21.6845L95.5063 24.2499L95.4924 29.3267C95.4924 29.6279 95.4526 29.9171 95.3968 30.2183C95.3834 30.314 95.343 30.4037 95.2803 30.4767C95.2176 30.5497 95.1353 30.603 95.0434 30.63C94.7716 30.7124 94.5127 30.7947 94.227 30.7947C94.1506 30.7874 94.0741 30.8065 94.0099 30.8488C93.9456 30.8911 93.8976 30.9542 93.8736 31.0277C93.8188 31.1512 93.774 31.2887 93.7511 31.4122C93.7242 31.5769 93.765 31.6331 93.9283 31.613C94.0508 31.599 98.5409 31.7094 99.3842 31.6271C99.888 31.5719 100.38 31.5036 100.881 31.353C101.737 31.0789 102.527 30.6802 103.153 30.0075C103.67 29.4582 103.969 28.7995 103.996 28.0314C104.036 27.8527 104.036 27.6749 104.036 27.4822L104.038 27.4751ZM97.4388 21.8521L97.4786 20.7547C97.4786 20.5488 97.5603 20.4534 97.7644 20.4113C98.0909 20.343 98.4175 20.3711 98.744 20.3841C99.0706 20.4112 99.3832 20.4524 99.7097 20.5488C100.307 20.7275 100.771 21.0709 101.044 21.6463C101.168 21.9079 101.233 22.1939 101.234 22.4837C101.248 22.8683 101.22 23.2388 101.071 23.6083C100.84 24.1164 100.473 24.4457 99.9417 24.5421C99.4101 24.6385 97.9007 24.5974 97.6698 24.5974C97.4657 24.5974 97.4507 24.5703 97.4507 24.3644V23.0721C97.4188 22.6703 97.4141 22.2667 97.4368 21.8642L97.4388 21.8521ZM101.859 29.2343C101.628 29.8518 101.206 30.2786 100.608 30.5095C100.281 30.633 99.9547 30.7104 99.6122 30.6883C99.19 30.6742 98.7689 30.6883 98.3478 30.6059C97.7763 30.4824 97.5175 29.9332 97.4766 29.5356C97.4089 28.8357 97.4497 28.1218 97.4368 27.6006V25.7892C97.4368 25.5683 97.4637 25.5011 97.6957 25.5011L98.975 25.5151L99.8461 25.6155C100.458 25.7531 101.016 25.987 101.452 26.466C101.805 26.8506 101.997 27.3165 102.037 27.8246C102.077 28.3045 102.051 28.7714 101.874 29.2243L101.859 29.2343Z" fill="currentColor"/><path d="M67.2894 25.1002L67.6428 25.1554C68.0241 25.1695 68.4731 25.0319 68.6085 24.4968C68.6832 24.2411 68.6832 23.9692 68.6085 23.7135C68.5269 23.7135 68.4861 23.7818 68.4453 23.8099C68.2412 23.9746 68.0102 24.071 67.7653 24.0981C67.2754 24.1533 66.7856 24.1252 66.3097 23.9475L65.6427 23.7146C65.1774 23.5609 64.6878 23.4962 64.199 23.5238C63.5051 23.579 62.852 23.812 62.2397 24.1413C61.5866 24.4978 61.1246 25.0329 60.9056 25.7609C60.7832 26.1867 60.7692 26.6244 60.824 27.0642C60.9604 28.0663 61.4771 28.7662 62.402 29.1367C62.4567 29.1508 62.4976 29.1769 62.5513 29.1919C62.6738 29.2602 62.6877 29.3295 62.5782 29.4249L62.2377 29.6579L61.4213 30.1659C61.2172 30.2894 61.1903 30.3868 61.2581 30.6047C61.339 30.8611 61.4898 31.0893 61.6931 31.2634C61.8798 31.425 62.0913 31.5549 62.3194 31.648C62.4687 31.7163 62.4687 31.7484 62.3333 31.8689L61.5567 32.4312C61.2979 32.632 61.039 32.8328 60.822 33.0899C60.671 33.2528 60.5623 33.4507 60.5053 33.6662C60.4483 33.8816 60.4449 34.1079 60.4954 34.3249C60.5966 34.8013 60.8439 35.2334 61.2023 35.56C61.5561 35.8904 61.9864 36.1262 62.4538 36.2458C63.2154 36.4667 64.0049 36.4787 64.7805 36.3281C65.8955 36.1223 66.8712 35.6252 67.6378 34.7778C68.1685 34.2155 68.4811 33.5568 68.509 32.7696C68.5387 32.3143 68.4073 31.8631 68.1382 31.4964C67.8692 31.1296 67.4798 30.8709 67.0395 30.7664L66.3047 30.6288L64.0597 30.428C63.8147 30.4139 63.5698 30.3728 63.3657 30.2493C63.1069 30.0846 63.0392 29.7693 63.2025 29.5635C63.3249 29.4128 63.4742 29.3165 63.6654 29.3024L64.1005 29.2622C64.9609 29.174 65.7687 28.8028 66.3993 28.2059C66.7361 27.8916 66.9768 27.4868 67.0932 27.0391C67.2565 26.4487 67.2565 25.8342 67.1201 25.2318C67.0803 25.0811 67.0932 25.0671 67.2834 25.0942L67.2894 25.1002ZM63.9541 31.9352C64.0358 31.9492 64.1174 31.9352 64.199 31.9352C64.7705 31.9623 65.3559 32.0034 65.9135 32.1561C66.0955 32.2103 66.2729 32.2792 66.4441 32.3619C66.9887 32.6631 67.1928 33.1853 67.1241 33.7476C67.0425 34.3651 66.702 34.8039 66.1713 35.0931C65.8179 35.2939 65.4226 35.3813 65.0144 35.4224C64.8651 35.4365 64.7287 35.4224 64.5794 35.4224C64.1035 35.4365 63.6405 35.3823 63.1915 35.1895C62.8789 35.066 62.62 34.8882 62.389 34.6402C61.9132 34.1603 61.6921 33.2817 62.403 32.5677C62.8381 32.1661 63.3289 31.8819 63.9541 31.9352ZM65.5053 27.6537C65.2195 28.3806 64.5933 28.6005 63.9681 28.5041C63.3966 28.4218 62.9745 28.1065 62.7037 27.5844C62.3502 26.8845 62.2556 26.1585 62.4587 25.4025C62.6081 24.8402 62.9486 24.4144 63.5469 24.318C64.3086 24.1805 65.0403 24.4556 65.4246 25.2237C65.6237 25.5952 65.7104 26.0471 65.7104 26.6917C65.6964 26.9528 65.6427 27.3092 65.5063 27.6527L65.5053 27.6537ZM48.3631 26.7198C48.2406 25.9788 47.9688 25.3061 47.4651 24.7438C46.7164 23.9063 45.7646 23.5388 44.6893 23.5358C43.7505 23.5218 42.8674 23.7969 42.0769 24.2909C41.2998 24.7599 40.7301 25.5112 40.4849 26.3905C40.254 27.1867 40.2659 27.9971 40.4451 28.8054C40.921 30.9742 42.5817 31.906 44.5669 31.7695C45.1523 31.7293 45.7098 31.5365 46.2395 31.2755C47.029 30.9039 47.6005 30.3145 47.9947 29.5323C48.3073 28.8877 48.4427 28.2009 48.4298 27.4187L48.3621 26.7188L48.3631 26.7198ZM46.4316 29.7663C46.3343 30.075 46.1499 30.3485 45.901 30.5532C45.652 30.7579 45.3493 30.885 45.0298 30.919C44.4325 31.0013 43.873 30.8507 43.3702 30.4933C43.0072 30.224 42.7133 29.8711 42.513 29.4641C41.9554 28.3113 41.8599 27.1044 42.1446 25.8694C42.2363 25.4871 42.4346 25.1394 42.7161 24.8673C43.2198 24.4004 43.8043 24.2909 44.4584 24.4285C45.0856 24.566 45.5605 24.9084 45.9518 25.4306C46.343 25.9527 46.5232 26.5552 46.6318 27.1878C46.6865 27.503 46.6865 27.8324 46.6995 28.0382C46.6995 28.6969 46.6447 29.2432 46.4406 29.7673L46.4316 29.7663ZM78.0916 26.8303C77.992 26.034 77.6973 25.3071 77.1388 24.7036C76.4041 23.8943 75.4513 23.5509 74.391 23.5368C73.479 23.5228 72.6357 23.7838 71.8602 24.2367C70.989 24.7588 70.3907 25.4988 70.1597 26.5009C69.8838 27.5942 69.9995 28.7506 70.4862 29.7663C70.9343 30.7272 71.6969 31.3447 72.7044 31.6189C73.8195 31.9201 74.8818 31.7835 75.9152 31.2755C76.8132 30.8367 77.4524 30.1509 77.8198 29.217C78.0388 28.6678 78.1185 28.0784 78.1324 27.3916C78.1463 27.2681 78.1185 27.0482 78.0926 26.8293L78.0916 26.8303ZM76.2139 29.5886C75.9949 30.3296 75.5339 30.8096 74.7583 30.92C74.1869 31.0023 73.6433 30.8648 73.1524 30.5354C72.7303 30.2473 72.4316 29.8627 72.2136 29.4108C71.9687 28.9309 71.8323 28.4228 71.7785 27.9017C71.6969 27.257 71.6969 26.6265 71.8462 25.9808C71.8747 25.8535 71.9157 25.7294 71.9687 25.6103C72.35 24.6494 73.1933 24.2106 74.1869 24.4305C74.8539 24.5811 75.3567 24.9526 75.738 25.5149C76.1064 26.0642 76.2826 26.6676 76.3652 27.3223C76.405 27.5834 76.42 27.8575 76.4051 28.0904C76.4051 28.6256 76.3652 29.1197 76.2059 29.5996L76.2139 29.5886Z" fill="currentColor"/></svg>