<svg width="120" height="34" viewBox="0 0 120 34" fill="none" xmlns="http://www.w3.org/2000/svg"><path d="M110.258 33.7478C109.968 33.7478 109.68 33.6718 109.426 33.5238L106.776 31.9558C106.38 31.7348 106.573 31.6558 106.704 31.6108C107.232 31.4268 107.339 31.3838 107.902 31.0658C107.961 31.0328 108.038 31.0448 108.099 31.0808L110.134 32.2898C110.172 32.31 110.214 32.3206 110.257 32.3206C110.3 32.3206 110.342 32.31 110.38 32.2898L118.317 27.7088C118.354 27.6868 118.385 27.6553 118.407 27.6176C118.428 27.5798 118.439 27.5372 118.439 27.4938V18.3338C118.439 18.2898 118.428 18.2465 118.406 18.2082C118.385 18.1698 118.354 18.1376 118.316 18.1148L110.382 13.5378C110.344 13.5171 110.302 13.5063 110.259 13.5063C110.217 13.5063 110.175 13.5171 110.137 13.5378L102.204 18.1158C102.166 18.1385 102.135 18.1705 102.113 18.2086C102.091 18.2468 102.08 18.2898 102.079 18.3338V27.4938C102.079 27.5818 102.128 27.6648 102.204 27.7058L104.378 28.9628C105.558 29.5518 106.281 28.8578 106.281 28.1598V19.1148C106.281 18.9878 106.384 18.8868 106.511 18.8868H107.518C107.643 18.8868 107.747 18.9878 107.747 19.1148V28.1598C107.747 29.7338 106.89 30.6368 105.397 30.6368C104.938 30.6368 104.577 30.6368 103.569 30.1408L101.488 28.9428C101.235 28.7952 101.025 28.5839 100.879 28.3298C100.733 28.0757 100.656 27.7878 100.656 27.4948V18.3348C100.656 17.7398 100.973 17.1848 101.488 16.8888L109.425 12.3018C109.681 12.1625 109.967 12.0896 110.258 12.0896C110.55 12.0896 110.836 12.1625 111.092 12.3018L119.029 16.8888C119.543 17.1858 119.862 17.7408 119.862 18.3348V27.4948C119.862 27.7878 119.784 28.0757 119.638 28.3297C119.492 28.5837 119.282 28.795 119.029 28.9428L111.092 33.5248C110.839 33.6718 110.551 33.7487 110.258 33.7478ZM112.711 27.4368C109.236 27.4368 108.509 25.8418 108.509 24.5048C108.509 24.444 108.534 24.3857 108.577 24.3428C108.62 24.2999 108.678 24.2758 108.739 24.2758H109.765C109.82 24.2756 109.873 24.295 109.915 24.3306C109.957 24.3662 109.984 24.4156 109.993 24.4698C110.147 25.5148 110.61 26.0418 112.711 26.0418C114.382 26.0418 115.094 25.6638 115.094 24.7758C115.094 24.2638 114.892 23.8848 112.294 23.6298C110.122 23.4148 108.779 22.9358 108.779 21.1968C108.779 19.5958 110.129 18.6398 112.391 18.6398C114.934 18.6398 116.192 19.5228 116.351 21.4168C116.353 21.4487 116.349 21.4807 116.339 21.511C116.329 21.5412 116.312 21.5691 116.291 21.5928C116.269 21.6155 116.243 21.6337 116.214 21.6463C116.186 21.6588 116.154 21.6654 116.123 21.6658H115.092C115.04 21.6659 114.99 21.6482 114.949 21.6156C114.908 21.583 114.88 21.5376 114.869 21.4868C114.621 20.3868 114.021 20.0358 112.39 20.0358C110.565 20.0358 110.353 20.6728 110.353 21.1478C110.353 21.7248 110.603 21.8928 113.068 22.2188C115.507 22.5418 116.666 22.9978 116.666 24.7128C116.667 26.4458 115.225 27.4368 112.711 27.4368ZM93.915 21.4288C94.228 21.2458 94.421 20.9118 94.421 20.5488V18.1948C94.421 17.8328 94.229 17.4988 93.915 17.3158L85.551 12.4598C85.3963 12.3699 85.2207 12.3223 85.0418 12.322C84.8629 12.3216 84.687 12.3685 84.532 12.4578L76.116 17.3168C75.9617 17.4061 75.8335 17.5344 75.7444 17.6889C75.6552 17.8433 75.6082 18.0185 75.608 18.1968V27.9128C75.608 28.2778 75.804 28.6158 76.122 28.7968L84.485 33.5618C84.793 33.7388 85.171 33.7398 85.482 33.5678L90.54 30.7558C90.6187 30.7121 90.6845 30.6483 90.7304 30.5708C90.7763 30.4934 90.8009 30.4051 90.8015 30.315C90.8021 30.225 90.7788 30.1364 90.7339 30.0583C90.689 29.9803 90.6241 29.9156 90.546 29.8708L82.078 25.0108C82.0003 24.9665 81.9357 24.9025 81.8908 24.8253C81.8458 24.748 81.8221 24.6602 81.822 24.5708V21.5248C81.822 21.3428 81.919 21.1758 82.076 21.0858L84.713 19.5658C84.79 19.5211 84.8775 19.4976 84.9665 19.4976C85.0555 19.4976 85.143 19.5211 85.22 19.5658L87.857 21.0858C87.9343 21.1301 87.9986 21.194 88.0434 21.2711C88.0882 21.3481 88.1118 21.4357 88.112 21.5248V23.9208C88.1115 24.0104 88.1347 24.0985 88.1793 24.1762C88.2239 24.2539 88.2883 24.3184 88.366 24.3631C88.4436 24.4078 88.5317 24.4312 88.6213 24.4308C88.7109 24.4303 88.7988 24.4062 88.876 24.3608L93.915 21.4288ZM84.917 20.9728C84.9468 20.9561 84.9804 20.9474 85.0145 20.9474C85.0486 20.9474 85.0822 20.9561 85.112 20.9728L86.727 21.9058C86.787 21.9408 86.824 22.0058 86.824 22.0748V23.9398C86.824 24.0098 86.787 24.0738 86.727 24.1088L85.112 25.0408C85.0824 25.058 85.0487 25.0671 85.0145 25.0671C84.9802 25.0671 84.9466 25.058 84.917 25.0408L83.303 24.1088C83.2732 24.0918 83.2484 24.0672 83.2312 24.0375C83.214 24.0078 83.2049 23.9741 83.205 23.9398V22.0748C83.205 22.0058 83.242 21.9408 83.303 21.9058L84.917 20.9728ZM63.016 24.8528C63.016 24.9428 62.968 25.0268 62.889 25.0728L59.999 26.7388C59.9605 26.7614 59.9166 26.7733 59.872 26.7733C59.8273 26.7733 59.7835 26.7614 59.745 26.7388L56.855 25.0728C56.8165 25.0504 56.7844 25.0183 56.7622 24.9797C56.7399 24.9411 56.7281 24.8974 56.728 24.8528V21.5148C56.728 21.4248 56.777 21.3398 56.855 21.2938L59.745 19.6258C59.7835 19.6027 59.8276 19.5905 59.8725 19.5905C59.9174 19.5905 59.9615 19.6027 60 19.6258L62.891 21.2938C62.9293 21.3166 62.961 21.349 62.9831 21.3877C63.0052 21.4264 63.0169 21.4702 63.017 21.5148L63.016 24.8528ZM63.797 0.136791C63.7195 0.09445 63.6324 0.0729132 63.5441 0.07428C63.4558 0.0756468 63.3693 0.099869 63.2932 0.144589C63.2171 0.189308 63.1538 0.252998 63.1096 0.329445C63.0654 0.405892 63.0418 0.49249 63.041 0.580792V13.4958C63.0407 13.5581 63.0243 13.6192 62.9933 13.6732C62.9622 13.7272 62.9177 13.7722 62.864 13.8038C62.8098 13.8347 62.7484 13.851 62.686 13.851C62.6236 13.851 62.5622 13.8347 62.508 13.8038L60.4 12.5888C60.2456 12.4999 60.0706 12.4531 59.8925 12.4531C59.7144 12.4531 59.5394 12.4999 59.385 12.5888L50.967 17.4468C50.8123 17.5361 50.6839 17.6645 50.5945 17.8191C50.5052 17.9738 50.4581 18.1492 50.458 18.3278V28.0468C50.458 28.4098 50.652 28.7448 50.966 28.9278L59.384 33.7888C59.698 33.9708 60.086 33.9708 60.401 33.7888L68.821 28.9278C68.9753 28.8382 69.1035 28.7097 69.1926 28.5551C69.2818 28.4005 69.3288 28.2252 69.329 28.0468V3.81979C69.329 3.45179 69.129 3.11179 68.808 2.93179L63.797 0.136791ZM34.171 12.4058C34.3254 12.3164 34.5006 12.2694 34.679 12.2694C34.8574 12.2694 35.0326 12.3164 35.187 12.4058L43.605 17.2628C43.919 17.4448 44.113 17.7808 44.113 18.1438V27.8658C44.113 28.2288 43.919 28.5648 43.605 28.7468L35.188 33.6078C35.0333 33.6968 34.858 33.7436 34.6795 33.7436C34.501 33.7436 34.3257 33.6968 34.171 33.6078L25.756 28.7468C25.6017 28.6572 25.4735 28.5287 25.3844 28.3741C25.2952 28.2195 25.2482 28.0442 25.248 27.8658V18.1428C25.248 17.7808 25.442 17.4448 25.756 17.2628L34.171 12.4058ZM18.863 18.0628C18.863 17.6968 18.671 17.3608 18.355 17.1798L9.94 12.3368C9.79868 12.2549 9.63927 12.2092 9.476 12.2038H9.389C9.22575 12.2093 9.06637 12.255 8.925 12.3368L0.509 17.1798C0.354178 17.2694 0.225648 17.3982 0.136308 17.5532C0.0469677 17.7081 -4.06938e-05 17.8839 2.64324e-08 18.0628L0.0180002 31.1028C0.0180002 31.2848 0.113 31.4538 0.272 31.5418C0.348133 31.588 0.435465 31.6124 0.5245 31.6124C0.613535 31.6124 0.700867 31.588 0.777 31.5418L5.777 28.6778C6.093 28.4898 6.286 28.1588 6.286 27.7958V21.7038C6.286 21.3398 6.478 21.0048 6.793 20.8228L8.923 19.5968C9.07695 19.5063 9.25244 19.459 9.431 19.4598C9.605 19.4598 9.783 19.5038 9.938 19.5968L12.066 20.8228C12.381 21.0048 12.575 21.3398 12.575 21.7038V27.7958C12.575 28.1588 12.77 28.4918 13.084 28.6778L18.084 31.5418C18.1611 31.5858 18.2484 31.6089 18.3372 31.6087C18.426 31.6085 18.5132 31.585 18.5901 31.5406C18.667 31.4962 18.7309 31.4324 18.7754 31.3556C18.82 31.2787 18.8436 31.1916 18.844 31.1028L18.863 18.0628Z" fill="currentColor"/></svg>