<svg width="46" height="46" viewBox="0 0 46 46" fill="none" xmlns="http://www.w3.org/2000/svg"><path fill-rule="evenodd" clip-rule="evenodd" d="M0.437988 20.1811C0.437988 20.4337 0.512379 20.6005 0.554066 20.7625C0.825754 21.8166 1.40974 22.7211 2.10261 23.5462C3.08946 24.7221 4.29804 25.6687 5.53608 26.5589C6.60989 27.3308 7.70563 28.0855 8.78375 28.8517C8.96883 28.9832 9.14385 29.1345 9.34474 29.2959C9.17188 29.3893 9.02813 29.4716 8.87863 29.5475C7.45586 30.2691 6.087 31.078 4.82524 32.058C4.0648 32.6489 3.32952 33.2767 2.81022 34.0971C1.97468 35.4168 1.67891 36.8226 2.30171 38.3237C2.48355 38.7622 2.76099 39.141 3.15235 39.4209C3.27921 39.5115 3.42152 39.6013 3.56994 39.6365C3.95016 39.726 4.33757 39.7846 4.72246 39.8554L5.81244 39.8547C7.01779 39.7472 8.11496 39.3343 9.10647 38.6501C10.6561 37.5806 11.7001 36.1467 12.1489 34.3063C12.4753 32.9687 12.4886 31.6297 12.104 30.2982C12.0672 30.1748 12.0248 30.0532 11.9768 29.9338C11.9301 29.8141 11.8751 29.6977 11.8104 29.5485L14.2815 28.1276L14.3185 28.1592C14.2736 28.3062 14.2258 28.4528 14.1852 28.6012C13.8916 29.6736 13.6964 30.7647 13.7665 31.8776C13.8412 33.0636 14.1722 34.1737 14.8665 35.1645C15.4279 35.9659 16.7655 35.9957 17.362 35.1914C17.5737 34.9057 17.7789 34.6071 17.9331 34.2883C18.3359 33.4564 18.709 32.6097 19.0939 31.7688L19.1611 31.6149C19.1334 32.0131 19.1011 32.3628 19.0863 32.7128C19.0633 33.2594 19.0953 33.8028 19.2822 34.3228C19.4421 34.7677 19.7141 35.1002 20.2237 35.1587C20.5723 35.1986 20.8501 35.0391 21.1064 34.8367C21.5033 34.523 21.8323 34.1319 22.0734 33.6871C22.7566 32.4325 23.4581 31.1855 24.0773 29.8993C24.7472 28.5081 25.333 27.0764 25.955 25.6615L26.0578 25.4107C26.2048 25.9882 26.3072 26.5539 26.4959 27.0893C26.7151 27.7107 26.9865 28.3173 27.2819 28.907C27.4217 29.1856 27.4055 29.3663 27.2118 29.5999C26.401 30.5774 25.6043 31.5668 24.8068 32.5551C24.6304 32.7732 24.4547 32.9953 24.3077 33.2336C24.2185 33.384 24.1599 33.5506 24.1352 33.7237C24.1104 33.8832 24.1484 34.046 24.241 34.178C24.3337 34.3101 24.4739 34.4011 24.6322 34.4321C24.9517 34.5009 25.2793 34.5242 25.6054 34.5014C26.7184 34.4195 27.7289 34.0289 28.6223 33.3669C29.7799 32.5094 30.1515 31.3393 29.8712 29.9525C29.7953 29.5762 29.6613 29.2104 29.5308 28.8478C29.4723 28.6842 29.4683 28.5696 29.575 28.4172C30.5004 27.0958 31.291 25.6939 32.0263 24.2596C32.0554 24.2032 32.0853 24.1468 32.1363 24.0864C32.3746 25.3262 32.7332 26.5212 33.3758 27.6054C33.048 27.9213 32.7235 28.2077 32.4299 28.5232C31.7834 29.2183 31.2228 29.973 30.9302 30.8933C30.8045 31.2901 30.7078 31.6933 30.7638 32.117C30.8508 32.775 31.3899 33.2027 32.0371 33.0528C33.4221 32.7322 34.6178 32.0796 35.4914 30.9235C36.0794 30.1451 36.1329 29.2768 35.8867 28.3673C35.8192 28.12 35.739 27.8767 35.6528 27.5932C35.9946 27.4872 36.3277 27.3599 36.6723 27.2812C38.4617 26.873 40.2316 26.9441 41.9559 27.5903C42.9625 27.9676 43.7757 28.5991 44.258 29.5924C44.847 30.8067 44.5214 31.9589 43.3768 32.7265C43.2701 32.798 43.1479 32.8544 43.0595 32.9439C43.0312 32.9767 43.01 33.0151 42.9973 33.0565C42.9846 33.098 42.9807 33.1416 42.9858 33.1847C42.9934 33.2289 43.1102 33.2842 43.1774 33.2835C43.5536 33.2806 43.8588 33.0833 44.1516 32.8807C44.8855 32.3729 45.421 31.6897 45.5363 30.7902L45.559 30.7226L45.5313 30.1368C45.5201 30.103 45.5395 30.0696 45.537 30.0441C45.3811 28.7342 44.6814 27.7182 43.6636 26.9219C42.4849 26.0001 41.093 25.6206 39.621 25.5605C38.4272 25.5092 37.2348 25.6927 36.1117 26.1007C35.7893 26.2175 35.4699 26.3558 35.1457 26.4863C35.1022 26.4076 35.0555 26.3321 35.0171 26.2541C34.6843 25.5728 34.281 24.9216 34.1919 24.1403C34.1287 23.5854 34.051 23.0313 34.1829 22.4825C34.3098 21.9546 34.4751 21.4356 34.6307 20.9149C34.7109 20.6468 34.6544 20.4966 34.3986 20.3758C34.3094 20.3314 34.2143 20.3001 34.1161 20.2831C33.4872 20.1918 32.8669 20.244 32.2578 20.4211C32.0421 20.484 31.8855 20.6048 31.8377 20.8434C31.8103 20.9803 31.7546 21.1115 31.7158 21.2466C31.5566 21.8083 31.4438 22.3808 31.1865 22.9159C30.5418 24.2582 29.8058 25.5498 29.0525 26.832C28.9709 26.9704 28.885 27.1062 28.7823 27.274C28.5178 26.7206 28.2356 26.224 28.1501 25.6418C28.0534 24.9834 27.9773 24.3261 28.1411 23.6728C28.263 23.1854 28.4222 22.7071 28.5688 22.2263C28.6381 21.9977 28.6062 21.8777 28.3992 21.7573C28.2946 21.6965 28.1763 21.6426 28.0585 21.625C27.4136 21.5268 26.7547 21.5807 26.1344 21.7824C25.9392 21.8457 25.8368 21.9718 25.7772 22.1731C25.6018 22.7668 25.4523 23.3748 25.2061 23.9394C24.2092 26.225 23.1836 28.4988 22.159 30.7722C21.9451 31.2469 21.6947 31.7051 21.4535 32.1673C21.3924 32.2845 21.3033 32.3876 21.2271 32.4976C21.166 32.4253 21.1423 32.3757 21.1427 32.3261C21.1445 32.034 21.1096 31.7332 21.1653 31.4507C21.3364 30.5964 21.5254 29.7458 21.7324 28.8995C21.9013 28.2002 22.0979 27.5073 22.2851 26.8126C22.348 26.5801 22.3491 26.3627 22.182 26.1672C21.9013 25.8398 21.3148 25.7679 20.9669 26.0202L20.8131 26.1072L20.8429 25.8592C20.9163 25.3277 20.931 24.798 20.7851 24.2743C20.6032 23.6217 20.1375 23.2462 19.4604 23.267C19.1449 23.2767 18.8135 23.3306 18.5214 23.4456C17.2927 23.9272 16.3479 24.78 15.5436 25.806C15.469 25.9013 15.3766 25.9811 15.2715 26.041C14.2319 26.6175 13.189 27.1867 12.1464 27.7581L10.986 28.3939C10.6748 28.097 10.392 27.789 10.071 27.5278C9.09102 26.7285 8.09519 25.949 7.10835 25.1588C6.23363 24.4583 5.38622 23.7288 4.73791 22.8013C4.25563 22.1113 3.94477 21.3562 3.91494 20.5031C3.87721 19.416 4.18555 18.4226 4.73899 17.498C5.44696 16.3149 6.4126 15.3654 7.47419 14.5055C8.59724 13.5962 9.81193 12.8243 11.0708 12.1196C12.8321 11.1338 14.6437 10.2612 16.5861 9.68516C18.5778 9.09434 20.5986 8.75617 22.6829 8.99192C23.5023 9.08464 24.298 9.27223 25.0286 9.67294C25.5881 9.97948 26.047 10.3809 26.2605 11.0084C26.4711 11.6258 26.4646 12.2515 26.3187 12.8786C26.0223 14.1486 25.3269 15.1955 24.4518 16.1309C23.0164 17.6644 21.2656 18.7083 19.2944 19.398C18.161 19.795 16.9818 20.0466 15.7851 20.1466C14.8044 20.2289 13.8441 20.1419 12.9155 19.8008C12.3006 19.5748 11.7651 19.2291 11.3346 18.7274C11.2577 18.6375 11.1592 18.5402 11.0158 18.6243C10.8753 18.7069 10.8505 18.8406 10.8976 18.9761C10.9763 19.201 11.0489 19.4354 11.1714 19.6366C11.4794 20.1415 11.9286 20.5077 12.4231 20.8218C13.373 21.4259 14.4346 21.629 15.5353 21.6761C17.2057 21.7483 18.8355 21.4989 20.4422 21.0508C22.7361 20.4111 24.7307 19.2812 26.3302 17.4987C27.6621 16.0145 28.6133 14.3394 28.8171 12.3169C28.9167 11.3297 28.8106 10.3626 28.3485 9.46198C27.8472 8.48628 27.0501 7.7607 26.097 7.26081C24.7091 6.53308 23.2112 6.10938 21.6652 6.10938H20.1163C18.2439 6.10938 16.4338 6.64592 14.6743 7.28597C13.3424 7.77077 12.0365 8.34289 10.7686 8.97611C8.0075 10.3557 5.43618 12.0193 3.32413 14.3067C2.27188 15.4463 1.38099 16.7037 0.86852 18.1844C0.713846 18.6264 0.580603 19.0757 0.469254 19.5306M10.4739 32.4728C10.3542 34.0752 9.62793 35.3744 8.44091 36.4266C7.77319 37.0181 7.00736 37.4393 6.11539 37.5874C5.79196 37.6409 5.46097 37.6539 5.14724 37.5198C4.69982 37.3286 4.59955 36.9315 4.59093 36.5085C4.57763 35.8344 4.81374 35.2249 5.13754 34.6448C5.56016 33.8887 6.17972 33.3123 6.84133 32.7739C7.88352 31.9254 9.01411 31.2074 10.172 30.5296L10.2593 30.4937C10.4383 31.1549 10.5235 31.8079 10.4739 32.4728ZM19.5151 25.5084C19.4306 26.0202 19.3249 26.5323 19.1754 27.0282C18.6587 28.745 17.9949 30.4085 17.2772 32.0498C17.1446 32.3535 16.9516 32.6305 16.7838 32.9184C16.7552 32.9626 16.7211 33.003 16.6821 33.0384C16.4744 33.2436 16.2774 33.2328 16.1725 32.9644C16.0503 32.6525 15.9752 32.3186 15.9105 31.9883C15.867 31.7666 15.8775 31.5337 15.8638 31.3066C15.8778 29.6916 16.3705 28.2239 17.2064 26.8575C17.5511 26.294 17.9263 25.7571 18.4995 25.4006C18.6778 25.2898 18.8707 25.2044 19.0727 25.1469C19.3781 25.061 19.5657 25.2023 19.5151 25.5084ZM25.6834 33.3672L27.9003 30.7787C27.9927 31.74 26.3586 33.6591 25.6834 33.3672ZM32.7641 31.6254C32.6074 31.7152 32.4367 31.7799 32.2761 31.8629C32.1291 31.9391 32.0806 31.8622 32.0763 31.7357C32.0741 31.6481 32.0854 31.5607 32.1097 31.4766C32.4091 30.4207 32.96 29.5194 33.7797 28.7863L33.8372 28.7568C34.2271 29.8475 33.7765 31.0453 32.7641 31.6254Z" fill="currentColor"/></svg>