<svg width="121" height="32" viewBox="0 0 121 32" fill="none" xmlns="http://www.w3.org/2000/svg"><path d="M26.46 24.1999L14.19 31.1399V25.7299L21.84 21.5199L26.47 24.1899L26.46 24.1999ZM27.3 23.4399V8.91986L22.81 11.5099V20.8399L27.33 23.4399H27.3ZM0.84 24.1999L13.11 31.1399V25.7299L5.46 21.5299L0.84 24.1999ZM0 23.4399V8.91986L4.49 11.5099V20.8399L0 23.4399ZM0.53 7.99986L13.12 0.879864V6.09986L5.05 10.5199H4.99L0.53 7.99986ZM26.78 7.99986L14.19 0.859863V6.07986L22.25 10.5099H22.31L26.78 7.99986ZM13.11 24.4999L5.57 20.3499V12.1299L13.12 16.4899L13.11 24.4999ZM14.19 24.4999L21.74 20.3499V12.1299L14.19 16.4899V24.4999ZM6.08 11.1899L13.65 6.99986L21.22 11.1599L13.65 15.5299L6.08 11.1899ZM44.94 21.5699H48.26L51.64 10.2999H48.41L46.41 18.2999L44.27 10.2999H41.47L39.31 18.2999L37.31 10.2999H34.1L37.46 21.5699H40.78L42.87 14.3499L44.94 21.5699ZM51.82 15.9999C51.7823 16.7863 51.9103 17.5719 52.1957 18.3057C52.481 19.0395 52.9174 19.7051 53.4765 20.2595C54.0356 20.8139 54.7049 21.2446 55.4411 21.5237C56.1773 21.8029 56.9639 21.9242 57.75 21.8799C58.6882 21.9188 59.6202 21.7102 60.4522 21.2748C61.2843 20.8395 61.9871 20.1929 62.49 19.3999L60.49 17.9099C60.1798 18.3452 59.7681 18.6983 59.2907 18.9388C58.8133 19.1792 58.2845 19.2997 57.75 19.2899C57.3868 19.3156 57.0222 19.2687 56.6773 19.1519C56.3325 19.0351 56.0144 18.8508 55.7416 18.6096C55.4688 18.3685 55.2468 18.0754 55.0885 17.7475C54.9303 17.4196 54.839 17.0635 54.82 16.6999H62.76V16.0499C62.76 12.3699 60.76 10.0499 57.29 10.0499C54.08 10.0499 51.77 12.5899 51.77 15.9999H51.82ZM54.95 14.7699C54.9682 14.1499 55.2266 13.5613 55.6707 13.1284C56.1148 12.6955 56.7098 12.4522 57.33 12.4499C57.6395 12.435 57.9488 12.4829 58.2393 12.5906C58.5299 12.6982 58.7956 12.8635 59.0207 13.0764C59.2458 13.2894 59.4255 13.5456 59.5491 13.8297C59.6727 14.1139 59.7377 14.42 59.74 14.7299L54.95 14.7699ZM63.95 21.5999H66.75V20.3999C67.1715 20.8646 67.6877 21.2336 68.2639 21.482C68.84 21.7304 69.4627 21.8525 70.09 21.8399C73.32 21.8399 75.61 19.4099 75.61 15.9399C75.61 12.4699 73.48 9.99986 70.25 9.99986C69.6197 9.97954 68.9929 10.1001 68.4151 10.3526C67.8373 10.6052 67.3231 10.9835 66.91 11.4599V5.99986H63.91V21.5699L63.95 21.5999ZM66.82 15.9999C66.82 13.8899 68.07 12.6799 69.71 12.6799C71.35 12.6799 72.6 13.9999 72.6 15.9999C72.6 17.9999 71.39 19.2499 69.71 19.2499C69.3034 19.2364 68.9038 19.1403 68.5355 18.9676C68.1672 18.7949 67.8379 18.549 67.5676 18.245C67.2973 17.941 67.0916 17.5852 66.9631 17.1993C66.8346 16.8133 66.7859 16.4052 66.82 15.9999ZM76.75 25.6299H79.75V20.3999C80.1677 20.8694 80.6832 21.2416 81.2603 21.4904C81.8373 21.7392 82.4619 21.8585 83.09 21.8399C86.32 21.8399 88.44 19.4099 88.44 15.9199C88.44 12.4299 86.13 9.99986 82.9 9.99986C82.2705 9.98511 81.6454 10.1081 81.0685 10.3603C80.4915 10.6125 79.9767 10.9878 79.56 11.4599V10.2899H76.76V25.5999L76.75 25.6299ZM79.64 15.9299C79.6059 15.5245 79.6546 15.1164 79.7831 14.7305C79.9116 14.3445 80.1173 13.9887 80.3876 13.6847C80.6579 13.3807 80.9872 13.1349 81.3555 12.9621C81.7238 12.7894 82.1234 12.6933 82.53 12.6799C84.21 12.6799 85.42 13.9299 85.42 15.9299C85.42 17.9299 84.26 19.2499 82.53 19.2499C80.8 19.2499 79.64 17.9999 79.64 15.8999V15.9299ZM88.95 18.1099C88.95 20.4799 90.89 21.8799 93.17 21.8799C93.6716 21.9187 94.1758 21.8495 94.6485 21.677C95.1211 21.5045 95.5513 21.2327 95.91 20.8799L96.1 21.6099H98.73V14.4299C98.73 11.9099 97.65 10.0099 94.03 10.0099C92.4537 10.0316 90.9152 10.4959 89.59 11.3499L90.71 13.3499C91.6329 12.8502 92.6609 12.5761 93.71 12.5499C95.03 12.5499 95.71 13.2199 95.71 14.2099V14.9999C94.9913 14.5691 94.1679 14.3442 93.33 14.3499C90.7 14.3499 88.95 15.8499 88.95 18.0699V18.1099ZM91.95 18.0199C91.95 17.0899 92.75 16.4499 93.89 16.4499C95.03 16.4499 95.89 17.0299 95.89 18.0199C95.89 19.0099 95.07 19.5699 93.95 19.5699C92.83 19.5699 91.95 18.9499 91.95 18.0199ZM105.95 19.2499C105.108 19.218 104.311 18.8645 103.722 18.2622C103.133 17.6599 102.797 16.8546 102.785 16.0123C102.772 15.17 103.083 14.3549 103.653 13.7349C104.223 13.1149 105.01 12.7373 105.85 12.6799C106.833 12.6891 107.774 13.0758 108.48 13.7599L109.32 11.2599C108.312 10.4525 107.061 10.0086 105.77 9.99986C104.979 9.97375 104.192 10.1094 103.455 10.3985C102.719 10.6877 102.049 11.1242 101.487 11.6813C100.925 12.2384 100.483 12.9043 100.188 13.6383C99.8928 14.3723 99.7505 15.1589 99.77 15.9499C99.7485 16.7381 99.8899 17.5224 100.185 18.2535C100.481 18.9846 100.924 19.6468 101.487 20.1988C102.05 20.7507 102.722 21.1805 103.458 21.4611C104.195 21.7418 104.982 21.8673 105.77 21.8299C107.057 21.8489 108.313 21.4292 109.33 20.6399L108.53 18.2099C107.819 18.8243 106.919 19.1771 105.98 19.2099L105.95 19.2499ZM110.41 21.5999H113.41V15.7499L117.18 21.5699H120.67L116.4 15.3999L120.4 10.2899H117.06L113.39 14.9999V5.99986H110.39V21.5699L110.41 21.5999Z" fill="currentColor"/></svg>