<svg width="32" height="32" viewBox="0 0 32 32" fill="none" xmlns="http://www.w3.org/2000/svg"><path d="M16 4C9.373 4 4 9.45713 4 16.1879C4 21.8989 7.872 26.6776 13.092 28C13.036 27.8355 13 27.6445 13 27.4079V25.3248C12.513 25.3248 11.697 25.3248 11.492 25.3248C10.671 25.3248 9.941 24.9662 9.587 24.3C9.194 23.5595 9.126 22.4271 8.152 21.7344C7.863 21.5039 8.083 21.2408 8.416 21.2763C9.031 21.4531 9.541 21.8817 10.021 22.5175C10.499 23.1543 10.724 23.2985 11.617 23.2985C12.05 23.2985 12.698 23.2731 13.308 23.1756C13.636 22.3296 14.203 21.5506 14.896 21.1829C10.9 20.7655 8.993 18.7463 8.993 16.0051C8.993 14.8249 9.488 13.6833 10.329 12.7215C10.053 11.7667 9.706 9.81972 10.435 9.07829C12.233 9.07829 13.32 10.2625 13.581 10.5825C14.477 10.2707 15.461 10.0939 16.495 10.0939C17.531 10.0939 18.519 10.2707 19.417 10.5845C19.675 10.2666 20.763 9.07829 22.565 9.07829C23.297 9.82074 22.946 11.7759 22.667 12.7286C23.503 13.6884 23.995 14.8269 23.995 16.0051C23.995 18.7443 22.091 20.7624 18.101 21.1819C19.199 21.7639 20 23.3991 20 24.6311V27.4079C20 27.5135 19.977 27.5897 19.965 27.6801C24.641 26.0154 28 21.5059 28 16.1879C28 9.45713 22.627 4 16 4Z" fill="currentColor"/></svg>