<svg width="32" height="32" viewBox="0 0 32 32" fill="none" xmlns="http://www.w3.org/2000/svg"><g clip-path="url(#clip0_2464_14)"><path d="M15.9864 4C9.65345 4 4.48924 8.85424 4 15.0373L10.4417 17.6949C10.9853 17.3153 11.6376 17.0983 12.3443 17.0983C12.3986 17.0983 12.4802 17.0983 12.5345 17.0983L15.4156 12.9763C15.4156 12.9492 15.4156 12.9492 15.4156 12.922C15.4156 10.4271 17.4541 8.39322 19.9547 8.39322C22.4553 8.39322 24.4938 10.4271 24.4938 12.922C24.4938 15.4169 22.4553 17.4508 19.9547 17.4508C19.9275 17.4508 19.8732 17.4508 19.846 17.4508L15.769 20.3525C15.769 20.4068 15.769 20.461 15.769 20.5153C15.769 22.3864 14.2469 23.9051 12.3715 23.9051C10.7135 23.9051 9.35447 22.739 9.02831 21.1661L4.4077 19.2678C5.82106 24.3119 10.4689 28 15.9864 28C22.6183 28 28 22.6305 28 16.0136C28 9.36949 22.6183 4 15.9864 4Z" fill="currentColor"/><path d="M11.5289 22.1966L10.0612 21.6C10.333 22.1424 10.7678 22.6034 11.3658 22.8475C12.6704 23.3898 14.1653 22.7661 14.7089 21.4644C14.9807 20.8407 14.9807 20.1356 14.7089 19.5119C14.4371 18.8881 13.9479 18.4 13.3228 18.1288C12.6976 17.8576 12.0181 17.8847 11.4473 18.1017L12.9694 18.7254C13.9207 19.1322 14.3828 20.217 13.9751 21.1661C13.5946 22.1424 12.4802 22.6034 11.5289 22.1966Z" fill="currentColor"/><path d="M22.9717 12.8949C22.9717 11.2407 21.6127 9.88475 19.9547 9.88475C18.2967 9.88475 16.9377 11.2407 16.9377 12.8949C16.9377 14.5492 18.2967 15.9051 19.9547 15.9051C21.6127 15.9051 22.9717 14.5763 22.9717 12.8949ZM17.6716 12.8949C17.6716 11.6475 18.6772 10.6441 19.9547 10.6441C21.2322 10.6441 22.2378 11.6475 22.2378 12.8949C22.2378 14.1424 21.2322 15.1458 19.9547 15.1458C18.6772 15.1458 17.6716 14.1424 17.6716 12.8949Z" fill="currentColor"/></g><defs><clipPath id="clip0_2464_14"><rect width="24" height="24" fill="currentColor" transform="translate(4 4)"/></clipPath></defs></svg>