<svg width="32" height="32" viewBox="0 0 32 32" fill="none" xmlns="http://www.w3.org/2000/svg"><path d="M16 4C22.6275 4 28 9.37247 28 16C28 22.6275 22.6275 28 16 28C9.37247 28 4 22.6275 4 16C4 9.37247 9.37247 4 16 4ZM20.1393 20.8918C20.3595 20.2148 21.3944 13.4652 21.5214 12.1353C21.5602 11.7322 21.4325 11.4647 21.184 11.3454C20.8826 11.2007 20.4358 11.2727 19.9176 11.4598C19.2068 11.716 10.1228 15.5729 9.59765 15.7967C9.10071 16.0085 8.62918 16.2386 8.62918 16.5732C8.62918 16.8082 8.76894 16.9402 9.15294 17.0772C9.55247 17.2198 10.5591 17.5247 11.1534 17.6885C11.7259 17.8466 12.3774 17.7096 12.7424 17.4824C13.1292 17.2416 17.5974 14.2522 17.9179 13.9904C18.2384 13.7285 18.4939 14.0638 18.232 14.3264C17.9701 14.5882 14.9038 17.5649 14.4986 17.9772C14.0073 18.4776 14.356 18.9958 14.6856 19.204C15.0619 19.4412 17.7668 21.2553 18.1748 21.5468C18.5828 21.8376 18.9951 21.9696 19.3741 21.9696C19.7525 21.9689 19.9508 21.4699 20.1393 20.8918Z" fill="currentColor"/></svg>