<svg width="289" height="75" viewBox="0 0 289 75" fill="none" xmlns="http://www.w3.org/2000/svg"><path d="M94.1969 41.2155C92.1973 38.4383 90.5309 36.0499 88.7535 33.717C82.4214 25.6075 74.2008 21.4416 63.7584 21.7749C52.8716 22.1081 42.5959 24.6632 32.7089 29.1068C31.4314 29.7178 30.0428 30.2177 28.6541 30.4954C28.1543 30.6065 27.2099 29.9955 26.9322 29.4401C26.6545 28.8846 26.6545 27.7737 26.9878 27.3849C28.8208 25.5519 30.8204 23.9411 32.7089 22.2192C37.3747 17.9979 42.207 13.9431 46.6506 9.55503C49.4278 6.7778 49.4278 3.88949 47.3171 1.72324C45.373 -0.276365 43.3179 -0.498517 40.3185 1.33446C37.819 2.83417 35.4306 4.66711 33.0421 6.44454C29.2095 9.33287 25.5437 12.4434 21.6 15.2762C17.7119 18.1089 13.6571 20.8306 8.49139 20.4974C7.76932 20.4418 6.99176 20.6085 6.32523 20.7751C2.77036 21.6638 0.826202 23.6634 0.548492 26.6628C0.270752 29.7733 1.65942 32.6061 5.04767 33.4393C18.2673 36.5498 24.8216 46.9366 31.4314 57.2124C33.5976 60.6006 35.0417 64.4888 37.208 67.9881C38.5411 70.1543 40.3185 72.0984 42.3181 73.7092C45.0953 75.931 49.3167 74.0425 49.9833 70.4876C50.7054 66.7106 49.9277 63.1001 48.1503 59.7675C44.8731 53.602 41.485 47.4921 37.819 40.7712C41.8183 37.3274 47.1506 36.9941 51.8719 35.8832C56.8153 34.7168 62.0921 34.5502 67.2577 34.4946C71.979 34.4946 75.645 37.1052 78.5333 40.7712C80.1441 42.8263 81.5882 44.9926 82.7546 47.2699C86.0318 53.602 92.6971 56.4348 99.6958 53.3798C105.417 50.8803 111.249 48.5474 116.915 45.8813C121.58 43.715 126.024 40.9378 130.69 38.8271C139.91 34.6613 148.575 35.4389 156.629 41.9931C162.35 46.6589 168.016 51.4913 174.237 55.4905C189.289 65.2109 206.564 64.4332 220.95 53.9353C223.338 52.2134 225.449 49.9916 228.004 48.5475C232.448 45.9924 236.947 43.1596 241.779 41.5488C257.832 36.1609 272.606 43.4928 278.383 59.2675C279.272 61.7115 279.716 64.3221 280.771 66.655C281.271 67.7659 282.827 68.8212 284.049 68.9879C286.159 69.2656 287.381 67.5992 287.77 65.7107C288.714 61.2116 288.048 56.8236 286.382 52.6577C280.883 38.716 270.718 30.551 255.832 28.5514C243.89 26.9406 233.17 30.6065 223.283 37.1052C220.228 39.1603 217.395 41.5488 214.396 43.7706C203.064 52.2133 190.678 52.5466 179.402 44.5482C174.292 40.9378 169.349 36.9941 164.572 32.8838C152.574 22.4969 139.355 21.386 125.246 27.3849C120.136 29.5511 115.415 32.495 110.472 35.0501C105.639 37.494 100.918 40.4934 94.1969 41.2155Z" fill="currentColor"/></svg>