<svg width="300" height="160" viewBox="0 0 300 160" fill="none" xmlns="http://www.w3.org/2000/svg">
<mask id="path-1-inside-1_1977_939" fill="white">
<path fill-rule="evenodd" clip-rule="evenodd" d="M0 0H80C102.091 0 120 17.9086 120 40H40C17.9086 40 0 22.0914 0 0ZM45.8578 80C41.9526 83.9052 41.9526 90.2369 45.8578 94.1421C49.7631 98.0474 56.0947 98.0474 59.9999 94.1421L74.1421 80C78.0473 76.0947 78.0473 69.7631 74.1421 65.8578C70.2368 61.9526 63.9052 61.9526 59.9999 65.8578L45.8578 80ZM40 120C17.9086 120 0 137.909 0 160H80C102.091 160 120 142.091 120 120H40ZM140 40C140 17.9086 157.909 0 180 0V140C180 151.046 171.046 160 160 160C148.954 160 140 151.046 140 140V40ZM300 0C277.909 0 260 17.9086 260 40V140C260 151.046 268.954 160 280 160C291.046 160 300 151.046 300 140V0ZM220 140C231.046 140 240 131.046 240 120C240 108.954 231.046 100 220 100C208.954 100 200 108.954 200 120C200 131.046 208.954 140 220 140Z"/>
</mask>
<path d="M0 0V-2H-2V0H0ZM120 40V42H122V40H120ZM0 160H-2V162H0V160ZM120 120H122V118H120V120ZM180 0H182V-2H180V0ZM300 0H302V-2H300V0ZM80 -2H0V2H80V-2ZM122 40C122 16.804 103.196 -2 80 -2V2C100.987 2 118 19.0132 118 40H122ZM40 42H120V38H40V42ZM-2 0C-2 23.196 16.804 42 40 42V38C19.0132 38 2 20.9868 2 0H-2ZM47.272 92.7279C44.1478 89.6037 44.1478 84.5384 47.272 81.4142L44.4436 78.5858C39.7573 83.2721 39.7573 90.87 44.4436 95.5563L47.272 92.7279ZM58.5857 92.7279C55.4615 95.8521 50.3962 95.8521 47.272 92.7279L44.4436 95.5563C49.1299 100.243 56.7279 100.243 61.4142 95.5563L58.5857 92.7279ZM72.7279 78.5858L58.5857 92.7279L61.4142 95.5563L75.5563 81.4142L72.7279 78.5858ZM72.7279 67.2721C75.8521 70.3962 75.8521 75.4616 72.7279 78.5858L75.5563 81.4142C80.2426 76.7279 80.2426 69.1299 75.5563 64.4436L72.7279 67.2721ZM61.4142 67.2721C64.5384 64.1479 69.6037 64.1479 72.7279 67.2721L75.5563 64.4436C70.87 59.7573 63.272 59.7573 58.5857 64.4436L61.4142 67.2721ZM47.272 81.4142L61.4142 67.2721L58.5857 64.4436L44.4436 78.5858L47.272 81.4142ZM2 160C2 139.013 19.0132 122 40 122V118C16.804 118 -2 136.804 -2 160H2ZM80 158H0V162H80V158ZM118 120C118 140.987 100.987 158 80 158V162C103.196 162 122 143.196 122 120H118ZM40 122H120V118H40V122ZM180 -2C156.804 -2 138 16.804 138 40H142C142 19.0132 159.013 2 180 2V-2ZM182 140V0H178V140H182ZM160 162C172.15 162 182 152.15 182 140H178C178 149.941 169.941 158 160 158V162ZM138 140C138 152.15 147.85 162 160 162V158C150.059 158 142 149.941 142 140H138ZM138 40V140H142V40H138ZM262 40C262 19.0132 279.013 2 300 2V-2C276.804 -2 258 16.804 258 40H262ZM262 140V40H258V140H262ZM280 158C270.059 158 262 149.941 262 140H258C258 152.15 267.85 162 280 162V158ZM298 140C298 149.941 289.941 158 280 158V162C292.15 162 302 152.15 302 140H298ZM298 0V140H302V0H298ZM238 120C238 129.941 229.941 138 220 138V142C232.15 142 242 132.15 242 120H238ZM220 102C229.941 102 238 110.059 238 120H242C242 107.85 232.15 98 220 98V102ZM202 120C202 110.059 210.059 102 220 102V98C207.85 98 198 107.85 198 120H202ZM220 138C210.059 138 202 129.941 202 120H198C198 132.15 207.85 142 220 142V138Z" fill="currentColor" mask="url(#path-1-inside-1_1977_939)"/>
</svg>