<svg width="30" height="16" viewBox="0 0 30 16" fill="none" xmlns="http://www.w3.org/2000/svg">
<path fill-rule="evenodd" clip-rule="evenodd" d="M0 0H8C10.2091 0 12 1.79086 12 4H4C1.79086 4 0 2.20914 0 0ZM4.58573 8C4.19521 8.39052 4.19521 9.02369 4.58573 9.41421C4.97626 9.80474 5.60942 9.80474 5.99995 9.41421L7.41416 8C7.80468 7.60947 7.80468 6.97631 7.41416 6.58578C7.02363 6.19526 6.39047 6.19526 5.99995 6.58578L4.58573 8ZM4 12C1.79086 12 0 13.7909 0 16H8C10.2091 16 12 14.2091 12 12H4ZM14 4C14 1.79086 15.7909 0 18 0V14C18 15.1046 17.1046 16 16 16C14.8954 16 14 15.1046 14 14V4ZM30 0C27.7908 0 26 1.79086 26 4V14C26 15.1046 26.8954 16 28 16C29.1045 16 30 15.1046 30 14V0ZM21.9999 14C23.1045 14 23.9999 13.1046 23.9999 12C23.9999 10.8954 23.1045 10 21.9999 10C20.8954 10 19.9999 10.8954 19.9999 12C19.9999 13.1046 20.8954 14 21.9999 14Z" fill="var(--text)"/></svg>