<svg width="93" height="44" viewBox="0 0 93 44" fill="none" xmlns="http://www.w3.org/2000/svg">
<path d="M45.8827 12.6618H51.6127V12.8488C52.0127 12.6748 52.4277 12.5288 52.8547 12.4208C53.2829 12.3128 53.723 12.259 54.1647 12.2608C55.1267 12.2608 56.0217 12.4478 56.8497 12.8088C57.6777 13.1698 58.3997 13.6638 58.9997 14.2918C59.6147 14.9198 60.0817 15.6548 60.4297 16.4918C60.7777 17.3288 60.9377 18.2148 60.9377 19.1518C60.9468 20.066 60.7791 20.9733 60.4437 21.8238C60.124 22.6387 59.6473 23.3828 59.0407 24.0138C58.4407 24.6408 57.7177 25.1138 56.8907 25.4838C56.0637 25.8538 55.1537 26.0178 54.1657 26.0178C53.6404 26.0216 53.1163 25.968 52.6027 25.8578C52.1227 25.7508 51.6527 25.6038 51.2027 25.4038V28.2758H53.7147V31.7488H45.1597V28.2758H47.3097V16.1078H45.8937V12.6598L45.8827 12.6618ZM53.8847 15.7748C53.3572 15.7712 52.8392 15.9145 52.3887 16.1888C51.9086 16.4815 51.5054 16.8847 51.2127 17.3648V21.0648C51.489 21.5031 51.8701 21.8657 52.3217 22.1198C52.8028 22.3892 53.3463 22.5271 53.8977 22.5198C54.3207 22.5233 54.7397 22.4367 55.1267 22.2658C55.5137 22.1058 55.8467 21.8658 56.1417 21.5708C56.4217 21.2768 56.6617 20.9158 56.8217 20.5008C56.9954 20.0771 57.0818 19.6227 57.0757 19.1648C57.0757 18.6308 56.9957 18.1498 56.8217 17.7348C56.6752 17.3331 56.4432 16.968 56.1417 16.6648C55.8551 16.372 55.5089 16.1442 55.1267 15.9968C54.7397 15.8498 54.3247 15.7698 53.8847 15.7698V15.7748ZM70.3047 12.6618H76.5167V22.3218H78.1167V25.7948H72.5467V24.6728C72.0864 25.083 71.5513 25.4004 70.9707 25.6078C70.3707 25.8218 69.6747 25.9418 68.8867 25.9418C68.1863 25.9439 67.4906 25.8266 66.8297 25.5948C66.2026 25.3739 65.6291 25.0233 65.1467 24.5658C64.6667 24.1118 64.2917 23.5238 64.0247 22.8288C63.7447 22.1338 63.6107 21.3288 63.6107 20.3838V16.1218H61.9107V12.6498H67.7107V20.3848C67.7107 21.2668 67.9377 21.9208 68.3787 22.3618C68.8327 22.8018 69.4087 23.0168 70.1287 23.0168C70.6367 23.0168 71.0907 22.8568 71.5047 22.5488C71.9187 22.2408 72.2127 21.8138 72.3997 21.2788V16.1358H70.3157L70.3047 12.6618ZM89.1047 25.1118C88.6367 25.3788 88.1547 25.5798 87.6887 25.6998C87.2227 25.8198 86.7267 25.8738 86.2457 25.8738C85.2307 25.8738 84.2957 25.6998 83.4397 25.3538C82.5837 25.0078 81.8397 24.5258 81.2217 23.9108C80.5963 23.2889 80.1013 22.5484 79.7657 21.7328C79.4143 20.8676 79.2376 19.9415 79.2457 19.0078C79.2457 18.0858 79.4057 17.2078 79.7397 16.4028C80.0635 15.6055 80.5401 14.8792 81.1427 14.2648C81.7427 13.6498 82.4657 13.1698 83.2927 12.8088C84.1347 12.4488 85.0427 12.2748 86.0177 12.2608C86.575 12.2649 87.1304 12.3275 87.6747 12.4478C88.1612 12.5616 88.6355 12.7227 89.0907 12.9288V12.6488H92.9387V25.2468C92.9387 26.3468 92.7517 27.3168 92.3647 28.1188C92.0079 28.889 91.4883 29.5728 90.8417 30.1228C90.1874 30.6643 89.4281 31.0647 88.6117 31.2988C87.7697 31.5528 86.8747 31.6858 85.9517 31.6858C84.8017 31.6858 83.7337 31.5258 82.7587 31.2178C81.8303 30.9312 80.9516 30.5032 80.1537 29.9488L81.7537 27.1288C82.3443 27.5053 82.9822 27.8019 83.6507 28.0108C84.3307 28.2248 85.0937 28.3308 85.9347 28.3308C86.3887 28.3308 86.8167 28.2778 87.1907 28.1838C87.5777 28.0768 87.9107 27.9168 88.1927 27.6758C88.4747 27.4348 88.7007 27.1158 88.8607 26.7008C89.0207 26.3008 89.1007 25.7788 89.1007 25.1648V25.1118H89.1047ZM86.3647 22.3598C86.9318 22.3679 87.489 22.2101 87.9677 21.9058C88.4477 21.6118 88.8227 21.2108 89.1037 20.7058L89.1307 17.5128C88.8367 16.9788 88.4507 16.5628 87.9547 16.2428C87.469 15.9393 86.9102 15.7731 86.3377 15.7618C85.9237 15.7748 85.5227 15.8558 85.1217 16.0158C84.7207 16.1758 84.3737 16.3898 84.0917 16.6838C83.7977 16.9778 83.5717 17.3118 83.3967 17.6988C83.2217 18.0858 83.1427 18.5268 83.1427 18.9988C83.1427 19.5068 83.2227 19.9608 83.3967 20.3748C83.5566 20.7655 83.7875 21.1232 84.0777 21.4298C84.3577 21.7238 84.7057 21.9378 85.0927 22.0978C85.4961 22.2605 85.9277 22.342 86.3627 22.3378L86.3647 22.3598Z" fill="white"/>
<g clip-path="url(#clip0_250_206)">
<path d="M37.5201 16.9812C37.4514 15.4687 37.5889 14.1624 36.9701 12.9937C35.3201 10.1749 31.1951 8.5249 22.8764 8.5249C14.7639 8.5249 10.2951 10.1749 8.71388 12.9937C8.02638 14.1624 8.16388 15.4687 8.02638 16.9812C7.95763 18.1499 7.40763 19.4562 7.61388 20.8312C7.88888 22.6187 8.02638 24.4062 8.30138 26.0562C8.50763 27.4312 10.2951 28.5312 10.5014 29.8374C10.9826 33.3437 14.4889 34.9249 22.8764 34.9249C31.3326 34.9249 34.6326 33.3437 35.1139 29.8374C35.3201 28.5312 37.0389 27.4312 37.2451 26.0562C37.5201 24.4062 37.6576 22.6187 37.9326 20.8312C38.1389 19.4562 37.5889 18.1499 37.5201 16.9812Z" fill="white"/>
<path d="M32.295 22.4812C33.9657 22.4812 35.32 21.1268 35.32 19.4562C35.32 17.7855 33.9657 16.4312 32.295 16.4312C30.6244 16.4312 29.27 17.7855 29.27 19.4562C29.27 21.1268 30.6244 22.4812 32.295 22.4812Z" fill="black"/>
<path d="M31.5385 18.8377C31.9561 18.8377 32.2947 18.4991 32.2947 18.0814C32.2947 17.6638 31.9561 17.3252 31.5385 17.3252C31.1208 17.3252 30.7822 17.6638 30.7822 18.0814C30.7822 18.4991 31.1208 18.8377 31.5385 18.8377Z" fill="white"/>
<path d="M27.6887 19.3188C29.2699 20.3501 30.6449 21.5876 31.8824 23.0313C33.3949 24.8876 33.3262 25.2313 33.3262 25.2313L32.2949 25.6438C32.2949 25.6438 30.7824 22.8251 28.9262 21.7251C27.0699 20.6251 26.7949 19.7313 26.7949 19.7313L27.6887 19.3188Z" fill="white"/>
<path d="M30.8512 24.0623C28.9262 21.5873 25.9699 20.1436 22.8762 20.1436H22.8074C19.7137 20.1436 16.7574 21.5873 14.8324 24.0623C13.1137 26.1248 13.2512 27.0186 13.2512 29.0123C13.2512 36.2311 15.7949 34.0998 17.4449 34.9936C19.0949 35.8873 20.9512 35.4748 22.8074 35.4748C24.6637 35.4748 26.4512 35.8186 28.1699 34.9248C29.8887 34.0311 32.4324 36.2311 32.4324 29.0123C32.5012 26.9498 32.5699 26.1248 30.8512 24.0623Z" fill="black"/>
<path d="M22.9451 21.8625C22.9451 21.725 24.1139 21.725 24.7326 21.2437C24.7326 21.2437 23.4264 21.6562 23.1514 21.5187C22.8764 21.3812 22.8076 20.9688 22.8076 20.9688C22.8076 20.9688 22.7389 21.3812 22.4639 21.5187C21.9139 21.5187 21.2951 21.45 20.7451 21.2437C21.4326 21.3812 22.0514 21.5875 22.6701 21.8625C22.6701 22 22.6701 22.275 22.6701 22.55C22.6701 23.5812 22.6701 24.6813 22.8076 25.7125C23.0139 26.0563 22.9451 23.4437 22.9451 22.55C22.9451 22.3437 22.9451 22.0687 22.9451 21.8625Z" fill="white"/>
<path d="M22.8764 25.9186C23.7701 25.9186 26.6576 27.9123 26.7264 30.3873C26.7264 30.3186 26.7264 30.3186 26.7264 30.2498C26.7264 27.7061 24.3889 25.6436 22.8764 25.6436C21.3639 25.6436 19.0264 27.7061 19.0264 30.2498C19.0264 30.3186 19.0264 30.3186 19.0264 30.3873C19.0951 27.8436 21.9826 25.9186 22.8764 25.9186Z" fill="white"/>
<path d="M13.3888 22.4812C15.0594 22.4812 16.4138 21.1268 16.4138 19.4562C16.4138 17.7855 15.0594 16.4312 13.3888 16.4312C11.7181 16.4312 10.3638 17.7855 10.3638 19.4562C10.3638 21.1268 11.7181 22.4812 13.3888 22.4812Z" fill="black"/>
<path d="M14.1449 18.8377C14.5626 18.8377 14.9012 18.4991 14.9012 18.0814C14.9012 17.6638 14.5626 17.3252 14.1449 17.3252C13.7273 17.3252 13.3887 17.6638 13.3887 18.0814C13.3887 18.4991 13.7273 18.8377 14.1449 18.8377Z" fill="white"/>
<path d="M17.7889 19.3188C16.2076 20.3501 14.8326 21.5876 13.5951 23.0313C12.1514 24.8876 12.1514 25.2313 12.1514 25.2313L13.1826 25.7126C13.1826 25.7126 14.6951 22.8938 16.5514 21.7938C18.4076 20.6938 18.6826 19.8001 18.6826 19.8001L17.7889 19.3188Z" fill="white"/>
<path d="M31.3324 9.41863C31.3324 9.41863 35.3199 12.7186 36.4887 16.5686C37.6574 20.4186 37.1762 25.0936 38.0699 25.7124C39.3074 26.5374 40.8199 21.6561 41.3012 21.1061C42.0574 20.2811 44.6012 18.1499 44.7387 17.8061C44.8762 17.4624 39.5824 11.6874 37.2449 10.5874C34.4949 9.21238 31.0574 9.14363 31.3324 9.41863Z" fill="black"/>
<path d="M14.0076 9.41863C14.0076 9.41863 10.0201 12.7186 8.92014 16.5686C7.82014 20.4186 8.23264 25.0936 7.33889 25.7124C6.03264 26.5374 4.58889 21.6561 4.10764 21.1061C3.35139 20.2811 0.807642 18.1499 0.670142 17.8061C0.532642 17.4624 5.75764 11.6874 8.09514 10.5874C10.8451 9.21238 14.2826 9.14363 14.0076 9.41863Z" fill="black"/>
<path d="M19.3014 23.9938C19.4532 23.9938 19.5764 23.8707 19.5764 23.7188C19.5764 23.567 19.4532 23.4438 19.3014 23.4438C19.1495 23.4438 19.0264 23.567 19.0264 23.7188C19.0264 23.8707 19.1495 23.9938 19.3014 23.9938Z" fill="white"/>
<path d="M17.7198 25.6437C17.8717 25.6437 17.9948 25.5206 17.9948 25.3688C17.9948 25.2169 17.8717 25.0938 17.7198 25.0938C17.5679 25.0938 17.4448 25.2169 17.4448 25.3688C17.4448 25.5206 17.5679 25.6437 17.7198 25.6437Z" fill="white"/>
<path d="M17.2389 23.9938C17.3907 23.9938 17.5139 23.8707 17.5139 23.7188C17.5139 23.567 17.3907 23.4438 17.2389 23.4438C17.087 23.4438 16.9639 23.567 16.9639 23.7188C16.9639 23.8707 17.087 23.9938 17.2389 23.9938Z" fill="white"/>
<path d="M26.0387 23.9938C26.1906 23.9938 26.3137 23.8707 26.3137 23.7188C26.3137 23.567 26.1906 23.4438 26.0387 23.4438C25.8868 23.4438 25.7637 23.567 25.7637 23.7188C25.7637 23.8707 25.8868 23.9938 26.0387 23.9938Z" fill="white"/>
<path d="M27.6197 25.6437C27.7716 25.6437 27.8947 25.5206 27.8947 25.3688C27.8947 25.2169 27.7716 25.0938 27.6197 25.0938C27.4678 25.0938 27.3447 25.2169 27.3447 25.3688C27.3447 25.5206 27.4678 25.6437 27.6197 25.6437Z" fill="white"/>
<path d="M28.1012 23.9938C28.2531 23.9938 28.3762 23.8707 28.3762 23.7188C28.3762 23.567 28.2531 23.4438 28.1012 23.4438C27.9493 23.4438 27.8262 23.567 27.8262 23.7188C27.8262 23.8707 27.9493 23.9938 28.1012 23.9938Z" fill="white"/>
<path d="M20.0573 21.1064C19.7135 20.2814 20.951 19.0439 22.876 19.0439C24.801 19.0439 26.1073 20.3502 25.6948 21.1064C25.2823 21.8627 24.1135 22.2064 22.876 22.2064C21.6385 22.2064 20.401 21.9314 20.0573 21.1064Z" fill="black"/>
<path d="M23.6352 21.1625C23.7823 21.1246 23.84 20.8554 23.7641 20.5612C23.6883 20.2671 23.5076 20.0594 23.3605 20.0973C23.2135 20.1353 23.1557 20.4045 23.2316 20.6986C23.3074 20.9927 23.4881 21.2004 23.6352 21.1625Z" fill="white"/>
<path d="M22.3098 20.6669C22.3998 20.3768 22.3551 20.1051 22.2101 20.0601C22.065 20.0152 21.8745 20.2139 21.7845 20.504C21.6945 20.7941 21.7392 21.0658 21.8842 21.1108C22.0293 21.1557 22.2198 20.957 22.3098 20.6669Z" fill="white"/>
</g>
<defs>
<clipPath id="clip0_250_206">
<rect width="44" height="44" fill="white" transform="translate(0.669922)"/>
</clipPath>
</defs>
</svg>
