<svg width="321" height="313" viewBox="0 0 321 313" fill="none" xmlns="http://www.w3.org/2000/svg">
<path fill-rule="evenodd" clip-rule="evenodd" d="M175.221 133.672L160.376 0L146.427 125.593L107.267 38.6501L145.067 133.38L31.7644 61.9359L122.183 152.067L28.6502 128.183L125.433 157.438L0 201.105L127.561 186.526L49.633 245.472L132.847 188.045L89.0018 312.709L156.925 204.227L154.415 302.195L161.461 200.45L231.75 312.709L189.69 193.121L264.094 255.639L188.126 185.948L320.751 201.105L202.091 159.796L296.079 140.862L193.74 156.88L288.987 61.9359L182.859 128.857L226.284 44.2926L175.428 133.542L175.221 133.672Z" fill="white"/>
</svg>
