<svg width="311" height="311" viewBox="0 0 311 311" fill="none" xmlns="http://www.w3.org/2000/svg">
<path fill-rule="evenodd" clip-rule="evenodd" d="M19.3484 17.1568C37.939 -1.1394 69.9401 -2.90717 107.224 9.85218C122.526 15.0891 138.631 22.7495 154.92 32.627C132.023 46.2875 108.787 64.1751 86.8598 85.7556C64.9326 107.336 46.6766 130.282 32.6526 152.958C23.0364 136.514 15.6341 120.288 10.6421 104.904C-1.5205 67.4218 0.757814 35.453 19.3484 17.1568ZM31.6973 154.513C-1.84211 97.5294 -9.08667 42.8815 18.2185 16.0087C45.5238 -10.8641 100.049 -2.74816 156.49 31.6966C213.473 -1.84191 268.12 -9.08607 294.992 18.2188C321.865 45.5238 313.749 100.049 279.305 156.489C312.844 213.471 320.088 268.119 292.783 294.991C265.478 321.864 210.954 313.748 154.514 279.305C97.5305 312.844 42.8825 320.089 16.0097 292.784C-10.8631 265.478 -2.74723 210.953 31.6973 154.513ZM152.959 278.349C136.515 287.966 120.289 295.368 104.905 300.36C67.4228 312.523 35.454 310.244 17.1578 291.654C-1.13842 273.063 -2.9062 241.062 9.85316 203.778C15.09 188.476 22.7503 172.371 32.6277 156.083C46.288 178.979 64.1753 202.214 85.7552 224.141C107.336 246.069 130.283 264.325 152.959 278.349ZM154.529 277.425C131.742 263.419 108.636 245.094 86.9033 223.011C65.1712 200.929 47.2169 177.534 33.577 154.528C47.5823 131.741 65.9078 108.636 87.9897 86.9036C110.072 65.171 133.468 47.2164 156.475 33.5764C179.261 47.5817 202.366 65.907 224.098 87.9887C245.831 110.071 263.786 133.467 277.426 156.474C263.42 179.26 245.094 202.366 223.012 224.099C200.931 245.831 177.536 263.785 154.529 277.425ZM156.084 278.374C172.372 288.251 188.476 295.911 203.778 301.148C241.062 313.907 273.063 312.139 291.653 293.843C310.244 275.547 312.522 243.578 300.36 206.096C295.368 190.712 287.966 174.487 278.35 158.044C264.326 180.719 246.07 203.667 224.142 225.247C202.215 246.827 178.98 264.714 156.084 278.374ZM278.375 154.919C288.252 138.631 295.912 122.526 301.149 107.224C313.908 69.9404 312.14 37.9393 293.844 19.3487C275.548 0.758144 243.579 -1.52017 206.097 10.6425C190.713 15.6343 174.488 23.0362 158.045 32.652C180.72 46.676 203.667 64.9318 225.246 86.8588C246.827 108.786 264.714 132.022 278.375 154.919ZM155.501 79.3893L156.736 124.136C157.197 140.804 170.601 154.208 187.269 154.668L232.015 155.903L187.269 157.139C170.601 157.599 157.197 171.003 156.736 187.671L155.501 232.417L154.265 187.671C153.805 171.003 140.401 157.599 123.733 157.139L78.987 155.903L123.733 154.668C140.401 154.208 153.805 140.804 154.265 124.136L155.501 79.3893Z" fill="white"/>
</svg>